<svg width="24" height="24" viewBox="0 0 24 24" fill="none" xmlns="http://www.w3.org/2000/svg">
<g clip-path="url(#clip0_277_1313)">
<path d="M12.0003 23.9695C9.62688 23.9695 7.30674 23.2665 5.3333 21.9496C3.35986 20.6327 1.82174 18.7609 0.913468 16.5709C0.00519193 14.381 -0.232455 11.9712 0.230581 9.64633C0.693616 7.32148 1.83654 5.18596 3.51481 3.50983C5.19309 1.8337 7.33134 0.692248 9.65918 0.229805C11.987 -0.232638 14.3999 0.00470462 16.5927 0.911818C18.7854 1.81893 20.6596 3.35508 21.9782 5.32599C23.2968 7.29691 24.0007 9.61408 24.0007 11.9845C23.9972 15.162 22.7318 18.2084 20.482 20.4553C18.2323 22.7022 15.1819 23.966 12.0003 23.9695ZM12.0003 0.773416C9.7799 0.772898 7.6092 1.43001 5.76273 2.66166C3.91626 3.89331 2.47698 5.64416 1.6269 7.69279C0.776825 9.74142 0.554137 11.9958 0.987003 14.1708C1.41987 16.3459 2.48884 18.3438 4.05874 19.9121C5.62863 21.4803 7.62892 22.5484 9.80664 22.9812C11.9844 23.4141 14.2417 23.1922 16.2931 22.3437C18.3446 21.4952 20.098 20.0581 21.3317 18.2143C22.5653 16.3705 23.2238 14.2027 23.2238 11.9851C23.2203 9.01312 22.0368 6.16378 19.9329 4.062C17.8289 1.96021 14.9762 0.777567 12.0003 0.773416Z" fill="#3ADB85"/>
<path d="M17.3113 5.94785L5.81037 10.9553C5.68339 11.0104 5.57468 11.1003 5.49686 11.2146C5.41905 11.3289 5.37534 11.463 5.37081 11.6012C5.36629 11.7393 5.40114 11.876 5.4713 11.9951C5.54147 12.1143 5.64407 12.2111 5.76717 12.2743L8.0997 13.4764L15.0482 8.6493C15.0626 8.63923 15.0794 8.63324 15.0969 8.63199C15.1144 8.63074 15.1319 8.63426 15.1476 8.64218C15.1633 8.6501 15.1765 8.66212 15.1858 8.67696C15.1952 8.6918 15.2003 8.7089 15.2007 8.72643L9.37984 14.2744C9.30824 14.3427 9.25126 14.4248 9.21234 14.5157C9.17342 14.6065 9.15336 14.7044 9.15339 14.8032V17.3746C9.15384 17.5335 9.20616 17.688 9.3024 17.8145C9.39864 17.9411 9.53356 18.0328 9.68672 18.0759C9.83989 18.119 10.0029 18.1111 10.1512 18.0533C10.2994 17.9955 10.4247 17.891 10.5081 17.7557L11.9198 15.4477L14.9081 16.9877C15.0066 17.0386 15.1154 17.0666 15.2262 17.0694C15.3371 17.0721 15.4471 17.0497 15.548 17.0037C15.6489 16.9577 15.738 16.8894 15.8086 16.804C15.8791 16.7186 15.9293 16.6182 15.9553 16.5105L18.3114 6.79103C18.3431 6.65916 18.3374 6.52108 18.295 6.39224C18.2526 6.2634 18.1751 6.14889 18.0713 6.06152C17.9674 5.97414 17.8413 5.91736 17.707 5.89751C17.5726 5.87767 17.4354 5.89555 17.3107 5.94916L17.3113 5.94785Z" fill="white"/>
<path d="M9.88509 18.491C9.58962 18.4905 9.30632 18.3735 9.09684 18.1654C8.88736 17.9573 8.76867 17.6749 8.7666 17.3799V14.8085C8.76696 14.6575 8.79781 14.5081 8.85729 14.3693C8.91678 14.2305 9.00369 14.1051 9.11282 14.0006L12.0193 11.2298L8.12915 13.9326L5.58916 12.6253C5.36069 12.5072 5.17978 12.3143 5.07671 12.0789C5.01799 11.9445 4.98637 11.7998 4.98367 11.6531C4.98097 11.5064 5.00723 11.3607 5.06096 11.2242C5.11469 11.0876 5.19484 10.963 5.29681 10.8575C5.39878 10.7519 5.52059 10.6674 5.65526 10.6089L17.1575 5.60143C17.3801 5.50622 17.6274 5.48491 17.8631 5.54064C18.0059 5.57508 18.1405 5.63728 18.2592 5.72369C18.378 5.8101 18.4785 5.91903 18.5551 6.04425C18.6317 6.16947 18.6828 6.30853 18.7055 6.45349C18.7283 6.59845 18.7222 6.74647 18.6877 6.88908L16.3316 16.6092C16.3106 16.6944 16.2799 16.7769 16.24 16.855C16.104 17.1179 15.8694 17.3164 15.5873 17.4071C15.3053 17.4979 14.9988 17.4735 14.7347 17.3393L12.0658 15.9667L10.8419 17.9668C10.7426 18.1297 10.6031 18.2643 10.4367 18.3577C10.2702 18.4511 10.0825 18.5002 9.89163 18.5002L9.88509 18.491ZM15.1025 8.24733C15.2296 8.24696 15.3518 8.29651 15.4426 8.38529C15.5335 8.47406 15.5857 8.59495 15.5881 8.72186V8.89181L9.64424 14.5575C9.61064 14.5896 9.58388 14.6281 9.56555 14.6708C9.54722 14.7135 9.5377 14.7594 9.53757 14.8059V17.3759C9.53808 17.4668 9.57458 17.5537 9.63909 17.6178C9.70359 17.6818 9.79085 17.7178 9.88182 17.7178C9.94042 17.7174 9.99797 17.7022 10.0491 17.6736C10.1003 17.6451 10.1434 17.604 10.1744 17.5544L11.7732 14.9398L15.0816 16.6452C15.1279 16.6687 15.179 16.6815 15.2309 16.6826C15.2829 16.6837 15.3345 16.673 15.3817 16.6514C15.429 16.6298 15.4708 16.5978 15.5039 16.5577C15.537 16.5177 15.5607 16.4708 15.5731 16.4203L17.9292 6.70084C17.9504 6.61218 17.9357 6.5187 17.8881 6.4409C17.8405 6.3631 17.7639 6.30732 17.6752 6.28578C17.6026 6.26893 17.5265 6.27557 17.4579 6.30474L5.95762 11.3115C5.89806 11.3376 5.84709 11.3799 5.81062 11.4337C5.77415 11.4874 5.75367 11.5504 5.75155 11.6153C5.74943 11.6802 5.76575 11.7444 5.79863 11.8004C5.83151 11.8564 5.8796 11.902 5.93734 11.9318L8.06305 13.0273L14.8198 8.33295C14.9019 8.27398 15.0007 8.24283 15.1019 8.24406L15.1025 8.24733ZM15.2727 8.96632L15.2674 8.96959L15.2727 8.96632Z" fill="#2A2A2A"/>
</g>
<defs>
<clipPath id="clip0_277_1313">
<rect width="24" height="24" fill="white"/>
</clipPath>
</defs>
</svg>
