<svg width="19" height="20" viewBox="0 0 19 20" fill="none" xmlns="http://www.w3.org/2000/svg">
<path fill-rule="evenodd" clip-rule="evenodd" d="M9.5 19.5C4.29762 19.5 0 15.2024 0 10C0 4.79762 4.29032 0.5 9.4927 0.5C14.6951 0.5 19 4.79762 19 10C19 15.2024 14.7024 19.5 9.5 19.5ZM8.33271 14.7719C8.60268 14.7719 8.83616 14.6478 9.01128 14.3779L13.9145 6.6947C14.024 6.53418 14.1188 6.33717 14.1188 6.16206C14.1188 5.77534 13.7759 5.53456 13.4183 5.53456C13.2067 5.53456 12.9952 5.6586 12.8346 5.90668L8.29623 13.1229L5.88109 10.0949C5.69139 9.85407 5.49438 9.76651 5.2609 9.76651C4.90337 9.76651 4.60421 10.0511 4.60421 10.4378C4.60421 10.6202 4.67718 10.8172 4.80122 10.9704L7.61765 14.3852C7.84384 14.6624 8.06274 14.7719 8.33271 14.7719Z" fill="#3ADB85"/>
</svg>
