<svg width="24" height="24" viewBox="0 0 24 24" fill="none" xmlns="http://www.w3.org/2000/svg">
<path d="M11.8083 23.9997C9.44337 23.9619 7.14237 23.2261 5.19434 21.8846C3.24631 20.5431 1.73812 18.6559 0.859236 16.4599C-0.0196469 14.264 -0.230025 11.8572 0.25453 9.54208C0.739084 7.22693 1.89696 5.1066 3.5827 3.44746C5.26845 1.78832 7.40687 0.664374 9.72935 0.216804C12.0518 -0.230766 14.4548 0.0180053 16.6363 0.931867C18.8178 1.84573 20.6807 3.38392 21.9908 5.35322C23.301 7.32251 24 9.63508 24 12.0004C23.9706 15.2072 22.6706 18.2715 20.385 20.521C18.0994 22.7705 15.015 24.0215 11.8083 23.9997ZM11.8083 0.775916C9.5965 0.8137 7.4452 1.50413 5.62448 2.76051C3.80376 4.01689 2.3948 5.78321 1.5745 7.83769C0.754208 9.89217 0.559148 12.1432 1.01382 14.3082C1.46849 16.4732 2.55262 18.4555 4.13008 20.0064C5.70754 21.5573 7.70801 22.6075 9.88031 23.0252C12.0526 23.4429 14.2999 23.2095 16.34 22.3543C18.3801 21.499 20.122 20.0601 21.3471 18.2181C22.5722 16.3761 23.2258 14.2133 23.2259 12.0011C23.1967 8.99951 21.9782 6.13207 19.8378 4.02773C17.6974 1.92338 14.8097 0.75394 11.8083 0.775916Z" fill="#3ADB85"/>
<path d="M3.37246 10.6709C3.40066 11.637 3.52845 12.5977 3.7538 13.5376C3.95644 14.4437 4.46201 15.2537 5.18706 15.8338C5.91212 16.4139 6.81331 16.7294 7.74186 16.7282H9.24588C9.70483 16.7282 10.1525 16.5859 10.5272 16.321C10.902 16.0561 11.1855 15.6815 11.3386 15.2489L11.7119 14.1922C11.7542 14.0724 11.8327 13.9686 11.9364 13.8952C12.0402 13.8217 12.1641 13.7823 12.2913 13.7822C12.4184 13.7823 12.5423 13.8217 12.6461 13.8952C12.7498 13.9686 12.8283 14.0724 12.8706 14.1922L13.2439 15.2489C13.397 15.6816 13.6804 16.0562 14.0552 16.3211C14.43 16.5861 14.8777 16.7283 15.3366 16.7282H16.8407C17.7694 16.7295 18.6708 16.4141 19.3961 15.834C20.1214 15.254 20.6273 14.4439 20.83 13.5376C21.0554 12.5977 21.1832 11.637 21.2114 10.6709H3.37246Z" fill="white"/>
<path d="M16.8487 17.125H15.34C14.7992 17.125 14.2717 16.9574 13.83 16.6454C13.3883 16.3333 13.0541 15.8921 12.8733 15.3824L12.4993 14.3257C12.481 14.2862 12.4517 14.2528 12.4149 14.2293C12.3782 14.2059 12.3356 14.1935 12.292 14.1935C12.2484 14.1935 12.2058 14.2059 12.169 14.2293C12.1323 14.2528 12.103 14.2862 12.0847 14.3257L11.7107 15.3824C11.5298 15.892 11.1956 16.3332 10.7539 16.6452C10.3122 16.9573 9.78475 17.1249 9.24395 17.125H7.73993C6.72041 17.1313 5.72968 16.7872 4.93356 16.1503C4.13744 15.5134 3.58423 14.6224 3.36653 13.6264C3.13578 12.661 3.00487 11.6745 2.97586 10.6824L2.96452 10.2764H21.6155L21.6041 10.6824C21.5749 11.6763 21.4436 12.6646 21.2121 13.6317C20.9937 14.625 20.4415 15.5135 19.6476 16.1492C18.8536 16.7848 17.8658 17.1292 16.8487 17.125ZM12.292 13.3917C12.5006 13.3918 12.7041 13.4566 12.8744 13.577C13.0448 13.6975 13.1737 13.8677 13.2433 14.0644L13.6167 15.121C13.743 15.4767 13.9762 15.7845 14.2844 16.0023C14.5926 16.2202 14.9606 16.3373 15.338 16.3377H16.8421C17.6834 16.3474 18.5021 16.0656 19.1593 15.5401C19.8164 15.0146 20.2713 14.2779 20.4468 13.455C20.6345 12.6707 20.7529 11.8714 20.8008 11.0664H3.7852C3.83279 11.8696 3.9508 12.6671 4.13787 13.4497C4.31641 14.2705 4.77138 15.0052 5.42669 15.5307C6.082 16.0563 6.8979 16.3409 7.73793 16.337H9.24728C9.62466 16.3365 9.99265 16.2194 10.3008 16.0015C10.609 15.7837 10.8423 15.4759 10.9686 15.1204L11.342 14.0644C11.4114 13.8678 11.54 13.6975 11.7101 13.5769C11.8802 13.4563 12.0835 13.3914 12.292 13.391V13.3917Z" fill="#2A2A2A"/>
<path d="M21.1261 11.8662C21.1762 11.4696 21.2045 11.0706 21.2107 10.6709H3.37246C3.37882 11.0706 3.40708 11.4696 3.45713 11.8662H21.1261Z" fill="#2A2A2A"/>
<path d="M7.81309 9.12422C7.86016 9.07025 7.91847 9.02723 7.98393 8.9982C8.0494 8.96916 8.12042 8.95481 8.19202 8.95614C8.26362 8.95748 8.33406 8.97447 8.3984 9.00592C8.46274 9.03737 8.51941 9.08253 8.56443 9.13822L9.19511 9.92688C9.22993 9.96996 9.27924 9.99888 9.33383 10.0083C9.38842 10.0176 9.44455 10.0068 9.49175 9.97783C9.53895 9.94884 9.57398 9.90367 9.5903 9.85074C9.60662 9.79781 9.60312 9.74075 9.58045 9.69022L9.04711 8.50355C8.96788 8.32833 8.85253 8.17184 8.70859 8.04432C8.56466 7.9168 8.3954 7.82114 8.21191 7.76361C8.02842 7.70607 7.83484 7.68797 7.64387 7.71048C7.45289 7.73299 7.26883 7.7956 7.10374 7.89422L3.03702 10.3369H6.76241L7.81309 9.12422ZM15.5465 8.50355L15.0132 9.69022C14.9905 9.74075 14.987 9.79781 15.0033 9.85074C15.0197 9.90367 15.0547 9.94884 15.1019 9.97783C15.1491 10.0068 15.2052 10.0176 15.2598 10.0083C15.3144 9.99888 15.3637 9.96996 15.3985 9.92688L16.0292 9.13822C16.0694 9.08809 16.1191 9.04637 16.1755 9.01546C16.2318 8.98454 16.2937 8.96503 16.3576 8.95803C16.4215 8.95104 16.4861 8.9567 16.5478 8.97469C16.6095 8.99268 16.6671 9.02265 16.7172 9.06288C16.7413 9.08125 16.7636 9.10178 16.7839 9.12422L17.8339 10.3362H21.5593L17.4926 7.89355C17.183 7.70829 16.8127 7.65338 16.4627 7.74087C16.1128 7.82835 15.8118 8.0511 15.6259 8.36022C15.5967 8.40641 15.5702 8.45427 15.5465 8.50355Z" fill="#2A2A2A"/>
</svg>
