<svg width="24" height="24" viewBox="0 0 24 24" fill="none" xmlns="http://www.w3.org/2000/svg">
<g clip-path="url(#clip0_277_2090)">
<path d="M12.0003 23.9994C9.62688 23.9994 7.30674 23.2962 5.3333 21.9787C3.35986 20.6612 1.82174 18.7886 0.913468 16.5977C0.00519193 14.4068 -0.232455 11.9959 0.230581 9.67007C0.693616 7.3442 1.83654 5.20775 3.51481 3.53089C5.19309 1.85404 7.33134 0.712081 9.65918 0.249437C11.987 -0.213208 14.3999 0.0242381 16.5927 0.931747C18.7854 1.83926 20.6596 3.37607 21.9782 5.34785C23.2968 7.31962 24.0007 9.6378 24.0007 12.0092C23.9972 15.1882 22.7318 18.2359 20.482 20.4838C18.2323 22.7316 15.1819 23.996 12.0003 23.9994ZM12.0003 0.793284C9.7799 0.792767 7.6092 1.45017 5.76273 2.68235C3.91626 3.91453 2.47698 5.66615 1.6269 7.71567C0.776825 9.76519 0.554137 12.0206 0.987003 14.1965C1.41987 16.3725 2.48884 18.3714 4.05874 19.9403C5.62863 21.5092 7.62892 22.5778 9.80664 23.0108C11.9844 23.4438 14.2417 23.2218 16.2931 22.3729C18.3446 21.5241 20.098 20.0864 21.3317 18.2418C22.5653 16.3972 23.2238 14.2284 23.2238 12.0099C23.2203 9.03658 22.0368 6.186 19.9329 4.0833C17.8289 1.9806 14.9762 0.797438 12.0003 0.793284V0.793284Z" fill="#3ADB85"/>
<path d="M19.7518 17.8131L14.2497 8.11159C14.184 7.99583 14.0883 7.89982 13.9727 7.83357C13.8572 7.76732 13.7259 7.73325 13.5927 7.73492C13.4595 7.73659 13.3292 7.77394 13.2153 7.84306C13.1015 7.91219 13.0082 8.01057 12.9454 8.12794L10.6934 12.3503L11.8976 14.4559C12.0063 14.6463 12.0486 14.8674 12.018 15.0845C11.9873 15.3015 11.8853 15.5023 11.7281 15.6552L11.4185 15.6081L9.04802 11.4636C8.98205 11.3469 8.88572 11.2501 8.76925 11.1836C8.65277 11.1172 8.52046 11.0834 8.38634 11.0858C8.25221 11.0883 8.12125 11.127 8.00731 11.1977C7.89337 11.2685 7.80069 11.3687 7.73909 11.4878L4.41897 17.8209C4.39655 17.8649 4.39251 17.916 4.40772 17.9629C4.42293 18.0099 4.45616 18.0489 4.50012 18.0714C4.52603 18.0847 4.55475 18.0917 4.5839 18.0916H19.5941C19.6261 18.0911 19.6574 18.0823 19.685 18.0662C19.7126 18.05 19.7356 18.0271 19.7518 17.9995C19.768 17.9719 19.7768 17.9406 19.7774 17.9087C19.7779 17.8767 19.7703 17.8452 19.7551 17.817L19.7518 17.8131Z" fill="white"/>
<path d="M4.58717 18.4747C4.48913 18.4746 4.39277 18.4493 4.30729 18.4013C4.22182 18.3534 4.15008 18.2843 4.09894 18.2007C4.0478 18.1172 4.01896 18.0219 4.01517 17.924C4.01139 17.8261 4.0328 17.7289 4.07734 17.6416L7.39942 11.3045C7.49348 11.1248 7.63422 10.9737 7.80689 10.867C7.97955 10.7604 8.17776 10.7021 8.38072 10.6983C8.58369 10.6946 8.78392 10.7455 8.9604 10.8457C9.13689 10.9459 9.28313 11.0918 9.38376 11.2679L11.6044 15.1489C11.6343 15.0667 11.646 14.9789 11.6385 14.8917C11.631 14.8046 11.6047 14.72 11.5612 14.6441L10.2522 12.3554L12.6044 7.948C12.6998 7.76936 12.8415 7.61959 13.0146 7.51435C13.1877 7.4091 13.3859 7.35224 13.5886 7.3497C13.7912 7.34716 13.9908 7.39904 14.1665 7.49991C14.3422 7.60079 14.4876 7.74696 14.5874 7.92315L20.0935 17.6305C20.1368 17.7111 20.1605 17.8007 20.1629 17.8921C20.1647 17.9679 20.1515 18.0433 20.124 18.114C20.0965 18.1847 20.0553 18.2493 20.0027 18.304C19.9502 18.3587 19.8873 18.4024 19.8177 18.4328C19.7482 18.4631 19.6733 18.4793 19.5974 18.4806L4.58717 18.4747ZM4.92029 17.7011H19.244L13.9133 8.30177C13.8665 8.21953 13.789 8.15919 13.6977 8.13394C13.6065 8.1087 13.5089 8.12061 13.4264 8.16706C13.3672 8.20022 13.3188 8.24971 13.287 8.30961L11.1364 12.3403L12.234 14.2602C12.3857 14.5249 12.4449 14.8326 12.4023 15.1347C12.3596 15.4367 12.2175 15.716 11.9984 15.9284L11.8603 16.0624L11.175 15.9578L8.71163 11.6505C8.66401 11.5689 8.58608 11.5093 8.49477 11.4848C8.40346 11.4604 8.30616 11.4729 8.22405 11.5197C8.16481 11.5532 8.1166 11.6032 8.0853 11.6635L4.92029 17.7011Z" fill="#2A2A2A"/>
<path d="M16.7891 5.50864C16.7581 5.47298 16.7411 5.42735 16.7411 5.38015C16.7411 5.33295 16.7581 5.28733 16.7891 5.25166L17.5869 4.3231C17.6124 4.29461 17.629 4.25929 17.6347 4.22148C17.6404 4.18367 17.6349 4.14502 17.6189 4.11029C17.6029 4.07555 17.5771 4.04624 17.5447 4.02596C17.5123 4.00568 17.4746 3.99532 17.4363 3.99614H13.7059C13.6538 3.99614 13.6039 4.01681 13.567 4.0536C13.5302 4.09039 13.5095 4.14028 13.5095 4.19231V6.56668C13.5095 6.61871 13.5302 6.66861 13.567 6.7054C13.6039 6.74219 13.6538 6.76285 13.7059 6.76285H17.4363C17.4746 6.76368 17.5123 6.75331 17.5447 6.73303C17.5771 6.71275 17.6029 6.68344 17.6189 6.64871C17.6349 6.61397 17.6404 6.57532 17.6347 6.53752C17.629 6.49971 17.6124 6.46439 17.5869 6.4359L16.7891 5.50864Z" fill="white"/>
<path d="M17.4383 7.15538H13.7078C13.553 7.15436 13.4048 7.09243 13.2952 6.98302C13.1857 6.87361 13.1238 6.72551 13.1227 6.57078V4.19642C13.1238 4.04169 13.1857 3.89359 13.2952 3.78418C13.4048 3.67477 13.553 3.61284 13.7078 3.61182H17.4383C17.5501 3.61186 17.6595 3.64387 17.7536 3.70407C17.8477 3.76427 17.9226 3.85014 17.9694 3.95153C18.0162 4.05291 18.033 4.16557 18.0177 4.27618C18.0025 4.38679 17.9558 4.49072 17.8833 4.57569L17.1909 5.38197L17.8833 6.19086C17.9559 6.27576 18.0026 6.3796 18.018 6.49015C18.0334 6.6007 18.0168 6.71334 17.9702 6.81479C17.9236 6.91624 17.849 7.00227 17.7551 7.06273C17.6612 7.12319 17.552 7.15557 17.4403 7.15604L17.4383 7.15538ZM13.897 6.3818H17.0266L16.4959 5.76189C16.4041 5.65644 16.3535 5.5214 16.3535 5.38164C16.3535 5.24188 16.4041 5.10683 16.4959 5.00139L17.0253 4.38474H13.8983L13.897 6.3818Z" fill="#2A2A2A"/>
</g>
<defs>
<clipPath id="clip0_277_2090">
<rect width="24" height="24" fill="white"/>
</clipPath>
</defs>
</svg>
