<svg width="24" height="24" viewBox="0 0 24 24" fill="none" xmlns="http://www.w3.org/2000/svg">
<path d="M11.9997 23.9994C9.62637 23.9994 7.30636 23.2956 5.33302 21.9771C3.35968 20.6585 1.82165 18.7844 0.913426 16.5918C0.00519926 14.3991 -0.232434 11.9864 0.230576 9.65866C0.693586 7.33095 1.83644 5.19281 3.51463 3.51463C5.19281 1.83644 7.33095 0.693586 9.65866 0.230576C11.9864 -0.232434 14.3991 0.00519926 16.5918 0.913426C18.7844 1.82165 20.6585 3.35968 21.977 5.33302C23.2956 7.30636 23.9994 9.62637 23.9994 11.9997C23.9956 15.181 22.7302 18.231 20.4806 20.4806C18.231 22.7302 15.181 23.9956 11.9997 23.9994ZM11.9997 0.761297C9.77723 0.762061 7.60491 1.42179 5.75738 2.65708C3.90985 3.89236 2.47008 5.64772 1.62012 7.70122C0.770153 9.75471 0.54816 12.0141 0.982207 14.1938C1.41625 16.3734 2.48685 18.3754 4.05863 19.9467C5.63041 21.5179 7.63279 22.5878 9.81259 23.0211C11.9924 23.4544 14.2517 23.2317 16.3049 22.381C18.3581 21.5303 20.113 20.0899 21.3477 18.242C22.5823 16.394 23.2413 14.2215 23.2413 11.999C23.2379 9.01898 22.0523 6.16201 19.9447 4.05516C17.8371 1.9483 14.9797 0.763683 11.9997 0.761297Z" fill="#3ADB85"/>
<path d="M15.8396 15.9783C15.8899 15.942 15.9376 15.9 15.9872 15.8606L16.0145 15.8384C16.1527 15.7265 16.286 15.6092 16.4145 15.4863C16.445 15.4573 16.473 15.4277 16.5029 15.3981C16.6002 15.3007 16.6936 15.2001 16.7865 15.0959C16.8405 15.0343 16.8927 14.9726 16.9442 14.9072C16.9957 14.8419 17.0612 14.7593 17.1178 14.6822C17.2074 14.5588 17.2907 14.4355 17.3721 14.3079C17.3982 14.2666 17.4256 14.2252 17.4504 14.1845C17.9905 13.2779 18.2808 12.2517 18.2935 11.2047C18.3062 10.1577 18.0408 9.12517 17.5228 8.20647C17.0047 7.28776 16.2516 6.51382 15.3358 5.95911C14.42 5.40441 13.3724 5.08762 12.2938 5.03923C11.2152 4.99085 10.1419 5.21249 9.1772 5.68284C8.21251 6.15319 7.38891 6.85641 6.78564 7.72481C6.18238 8.59322 5.81978 9.59758 5.73272 10.6412C5.64567 11.6849 5.8371 12.7327 6.28859 13.6838C6.31593 13.7455 6.34518 13.8004 6.37507 13.8577C6.42976 13.9644 6.48762 14.0692 6.54676 14.1722C6.6059 14.2752 6.67394 14.3776 6.73753 14.4768C6.76614 14.5194 6.79476 14.5619 6.82464 14.6039C6.92469 14.7465 7.03067 14.8846 7.14259 15.0182L7.15658 15.0337C7.53297 15.4791 7.97225 15.8708 8.46142 16.1972L7.42937 18.8666C7.3758 19.0053 7.38121 19.159 7.44441 19.2938C7.5076 19.4286 7.62342 19.5336 7.76639 19.5856C7.83091 19.6097 7.89947 19.6221 7.96861 19.622C8.08586 19.622 8.2003 19.5872 8.29666 19.5224C8.39301 19.4577 8.46669 19.3659 8.50784 19.2594L9.47948 16.746C10.1555 17.0339 10.879 17.2026 11.6161 17.2443V19.0633C11.6121 19.2115 11.669 19.3551 11.7742 19.4626C11.8795 19.5701 12.0244 19.6327 12.1772 19.6365C12.33 19.6404 12.4781 19.5852 12.589 19.4831C12.6998 19.3811 12.7643 19.2405 12.7683 19.0923V17.2122C13.4932 17.1255 14.1967 16.9155 14.8464 16.5919L15.8772 19.2576C15.9182 19.3641 15.9919 19.4559 16.0883 19.5207C16.1846 19.5855 16.2991 19.6202 16.4164 19.6202C16.4855 19.6202 16.5541 19.6078 16.6186 19.5838C16.7618 19.5321 16.8779 19.4274 16.9415 19.2927C17.005 19.1579 17.0108 19.0043 16.9575 18.8654L15.8396 15.9783Z" fill="white"/>
<path d="M12.1945 20.0001H12.1697C11.9173 19.9935 11.678 19.8901 11.5041 19.7127C11.3302 19.5353 11.2359 19.2983 11.2419 19.0535V17.5786C10.7144 17.5211 10.1959 17.4018 9.69796 17.2234L8.86177 19.3865C8.7742 19.6015 8.60809 19.7778 8.39511 19.8816C8.18212 19.9854 7.93718 20.0096 7.70699 19.9495H7.67901L7.61542 19.9181C7.38482 19.828 7.19962 19.6541 7.09925 19.4335C6.99889 19.213 6.9913 18.9631 7.0781 18.7372L8.00967 16.3287C7.58606 16.0188 7.20184 15.6613 6.86507 15.2637C6.73154 15.1065 6.61898 14.9597 6.51215 14.8087C6.48863 14.776 6.46446 14.7396 6.43903 14.7026C6.29123 14.4824 6.15683 14.2541 6.03651 14.0187C6.00535 13.9571 5.97292 13.8954 5.94367 13.8338C5.46534 12.8257 5.26266 11.7151 5.35514 10.6091C5.44763 9.503 5.83215 8.43865 6.47171 7.51844C7.11128 6.59824 7.98434 5.85317 9.00686 5.35495C10.0294 4.85673 11.167 4.62213 12.3101 4.67374C13.4532 4.72536 14.5633 5.06143 15.5337 5.64963C16.5041 6.23783 17.302 7.05834 17.8506 8.03219C18.3992 9.00604 18.6801 10.1004 18.6662 11.21C18.6523 12.3197 18.3441 13.4071 17.7712 14.3678C17.7534 14.398 17.7331 14.4294 17.7127 14.4621L17.6885 14.5003C17.5503 14.7203 17.3991 14.9323 17.2358 15.1355C17.1824 15.2021 17.1271 15.2687 17.0698 15.3346C16.9738 15.4444 16.8727 15.5511 16.7697 15.6541L16.6737 15.749C16.5465 15.868 16.4193 15.9846 16.2826 16.0949L17.3064 18.736C17.3947 18.9657 17.3854 19.22 17.2804 19.443C17.1755 19.6661 16.9836 19.8396 16.7468 19.9255C16.6409 19.9654 16.5285 19.9863 16.4149 19.9871C16.2213 19.9866 16.0324 19.929 15.8734 19.822C15.7144 19.7149 15.5928 19.5635 15.5246 19.3878L14.6375 17.0939C14.1593 17.2961 13.6578 17.4422 13.1438 17.5292V19.1029C13.1364 19.3426 13.0333 19.5702 12.8562 19.7376C12.679 19.9049 12.4418 19.9991 12.1945 20.0001ZM9.26937 16.2565L9.6331 16.4113C10.2682 16.6819 10.9481 16.8402 11.6406 16.8787L11.9948 16.899V19.0616C11.9931 19.0877 11.9968 19.1139 12.0057 19.1387C12.0146 19.1634 12.0286 19.1862 12.0467 19.2056C12.0648 19.2251 12.0868 19.2408 12.1113 19.2518C12.1358 19.2629 12.1624 19.2691 12.1894 19.27C12.2413 19.2676 12.2905 19.2471 12.3281 19.2123C12.3657 19.1776 12.3891 19.1308 12.3941 19.0807V16.8879L12.7242 16.8485C13.4052 16.7676 14.0661 16.5706 14.6763 16.2664L15.0521 16.0814L16.2311 19.13C16.2453 19.1658 16.2701 19.1966 16.3023 19.2188C16.3346 19.241 16.3728 19.2534 16.4123 19.2546C16.4518 19.2558 16.4908 19.2457 16.5244 19.2255C16.558 19.2053 16.5847 19.1759 16.6012 19.1411C16.6121 19.118 16.6182 19.093 16.6191 19.0676C16.62 19.0422 16.6156 19.0169 16.6063 18.9931L15.3885 15.852L15.6149 15.688C15.6423 15.6676 15.669 15.6454 15.6963 15.6232L15.7472 15.5819C15.9036 15.4549 16.0289 15.3445 16.1497 15.2286L16.2343 15.1447C16.3239 15.0547 16.4142 14.9597 16.5001 14.8617C16.5509 14.8043 16.5999 14.7445 16.6476 14.6847C16.7933 14.5045 16.9275 14.3159 17.0495 14.1199L17.122 14.0046C17.63 13.1524 17.9033 12.1877 17.9155 11.2034C17.9277 10.2192 17.6784 9.24843 17.1917 8.38464C16.7049 7.52084 15.9971 6.79308 15.1363 6.2714C14.2755 5.74972 13.2907 5.45169 12.2767 5.40598C11.2627 5.36027 10.2537 5.56843 9.3467 6.01042C8.43971 6.45242 7.6653 7.11336 7.09803 7.92964C6.53075 8.74593 6.18969 9.69006 6.10769 10.6712C6.02568 11.6523 6.20548 12.6374 6.62979 13.5316C6.65587 13.5883 6.68384 13.642 6.71119 13.695C6.76333 13.798 6.81929 13.8985 6.87525 13.9965C6.93121 14.0946 6.99098 14.1865 7.05266 14.279L7.13215 14.3949C7.2288 14.533 7.32864 14.6625 7.43483 14.7877C7.79252 15.2124 8.21017 15.586 8.67545 15.8976L8.91772 16.0592L7.78203 18.995C7.76357 19.043 7.7654 19.0962 7.78711 19.143C7.80787 19.1876 7.84539 19.2229 7.89203 19.2416L7.90284 19.2453C7.95212 19.2625 8.00639 19.2603 8.05397 19.2391C8.10154 19.2178 8.13862 19.1793 8.1572 19.1319L9.26937 16.2565Z" fill="#2A2A2A"/>
<path d="M12.0019 14.8544C14.1006 14.8544 15.802 13.2045 15.802 11.1694C15.802 9.1342 14.1006 7.48438 12.0019 7.48438C9.90318 7.48438 8.20183 9.1342 8.20183 11.1694C8.20183 13.2045 9.90318 14.8544 12.0019 14.8544Z" fill="white"/>
<path d="M12.002 15.2187C11.176 15.2187 10.3685 14.9812 9.6817 14.5362C8.99487 14.0912 8.45956 13.4586 8.14344 12.7186C7.82733 11.9785 7.74462 11.1642 7.90578 10.3786C8.06693 9.59294 8.4647 8.87129 9.0488 8.30488C9.6329 7.73848 10.3771 7.35275 11.1872 7.19647C11.9974 7.0402 12.8372 7.12041 13.6003 7.42695C14.3635 7.73348 15.0158 8.25259 15.4747 8.91861C15.9336 9.58464 16.1786 10.3677 16.1786 11.1687C16.1774 12.2425 15.737 13.272 14.954 14.0312C14.171 14.7905 13.1094 15.2176 12.002 15.2187ZM12.002 7.84813C11.3248 7.84813 10.6627 8.04288 10.0996 8.40775C9.53651 8.77262 9.09761 9.29122 8.83844 9.89797C8.57926 10.5047 8.51145 11.1724 8.64358 11.8165C8.7757 12.4606 9.10183 13.0523 9.58073 13.5167C10.0596 13.9811 10.6698 14.2973 11.334 14.4255C11.9982 14.5536 12.6868 14.4878 13.3125 14.2365C13.9382 13.9852 14.473 13.5596 14.8492 13.0135C15.2255 12.4674 15.4263 11.8254 15.4263 11.1687C15.425 10.2885 15.0637 9.44483 14.4218 8.82258C13.7799 8.20033 12.9097 7.85034 12.002 7.84936V7.84813Z" fill="#2A2A2A"/>
<path d="M12.0034 12.4365C12.7251 12.4365 13.3101 11.8691 13.3101 11.1693C13.3101 10.4694 12.7251 9.9021 12.0034 9.9021C11.2817 9.9021 10.6966 10.4694 10.6966 11.1693C10.6966 11.8691 11.2817 12.4365 12.0034 12.4365Z" fill="white"/>
<path d="M12.0061 12.8016C11.6732 12.8016 11.3478 12.7058 11.071 12.5265C10.7942 12.3471 10.5784 12.0922 10.451 11.794C10.3237 11.4957 10.2903 11.1675 10.3553 10.8509C10.4202 10.5343 10.5805 10.2434 10.8159 10.0152C11.0513 9.78691 11.3512 9.63145 11.6777 9.56847C12.0043 9.50549 12.3427 9.53782 12.6503 9.66136C12.9578 9.7849 13.2207 9.9941 13.4057 10.2625C13.5906 10.5309 13.6893 10.8465 13.6893 11.1693C13.6888 11.6021 13.5113 12.017 13.1958 12.323C12.8802 12.6289 12.4524 12.8011 12.0061 12.8016ZM12.0061 10.2666C11.822 10.2666 11.642 10.3195 11.4889 10.4187C11.3358 10.5179 11.2165 10.6589 11.146 10.8239C11.0756 10.9888 11.0571 11.1703 11.0931 11.3455C11.129 11.5206 11.2177 11.6814 11.3478 11.8077C11.478 11.9339 11.6439 12.0199 11.8245 12.0547C12.0051 12.0896 12.1923 12.0717 12.3624 12.0034C12.5325 11.935 12.6779 11.8193 12.7802 11.6709C12.8825 11.5224 12.9371 11.3479 12.9371 11.1693C12.9369 10.93 12.8388 10.7004 12.6642 10.5312C12.4897 10.3619 12.253 10.2667 12.0061 10.2666Z" fill="#2A2A2A"/>
</svg>
