<svg width="24" height="24" viewBox="0 0 24 24" fill="none" xmlns="http://www.w3.org/2000/svg">
<g clip-path="url(#clip0_277_2080)">
<path d="M12.0003 24C9.62689 24 7.30675 23.2962 5.33331 21.9776C3.35986 20.6591 1.82175 18.7849 0.913476 16.5922C0.00519955 14.3995 -0.232447 11.9867 0.230588 9.65892C0.693624 7.33115 1.83654 5.19295 3.51482 3.51472C5.1931 1.83649 7.33135 0.693605 9.65919 0.230582C11.987 -0.232441 14.3999 0.00519941 16.5927 0.913451C18.7854 1.8217 20.6596 3.35977 21.9782 5.33316C23.2969 7.30655 24.0007 9.62663 24.0007 12C23.9972 15.1815 22.7318 18.2318 20.482 20.4815C18.2323 22.7311 15.182 23.9965 12.0003 24ZM12.0003 0.774874C9.77991 0.774357 7.6092 1.4323 5.76274 2.66549C3.91627 3.89868 2.47699 5.65172 1.62691 7.70292C0.776833 9.75412 0.554145 12.0113 0.98701 14.1891C1.41988 16.3669 2.48885 18.3673 4.05874 19.9376C5.62864 21.5078 7.62893 22.5772 9.80665 23.0105C11.9844 23.4439 14.2417 23.2218 16.2931 22.3722C18.3446 21.5226 20.098 20.0838 21.3317 18.2376C22.5653 16.3915 23.2238 14.221 23.2238 12.0007C23.2203 9.02491 22.0368 6.172 19.9329 4.06758C17.8289 1.96316 14.9762 0.779031 12.0003 0.774874Z" fill="#3ADB85"/>
<path d="M18.3827 7.8092C18.3827 7.27006 17.9411 6.83301 17.3964 6.83301C16.8517 6.83301 16.4101 7.27006 16.4101 7.8092V15.6188C16.4101 16.1579 16.8517 16.595 17.3964 16.595C17.9411 16.595 18.3827 16.1579 18.3827 15.6188V7.8092Z" fill="white"/>
<path d="M17.6091 16.9786H17.185C16.8773 16.9781 16.5822 16.8569 16.3646 16.6415C16.147 16.4261 16.0245 16.1341 16.024 15.8295V7.60276C16.0245 7.29815 16.147 7.00616 16.3646 6.79076C16.5822 6.57536 16.8773 6.45413 17.185 6.45361H17.6091C17.9169 6.45413 18.2119 6.57536 18.4295 6.79076C18.6471 7.00616 18.7696 7.29815 18.7701 7.60276V15.8295C18.7696 16.1341 18.6471 16.4261 18.4295 16.6415C18.2119 16.8569 17.9169 16.9781 17.6091 16.9786ZM17.185 7.21604C17.0824 7.21604 16.9839 7.25636 16.9113 7.32813C16.8386 7.39991 16.7977 7.49728 16.7976 7.59888V15.8256C16.7977 15.9272 16.8386 16.0246 16.9113 16.0963C16.9839 16.1681 17.0824 16.2084 17.185 16.2084H17.6091C17.7116 16.2083 17.8099 16.1679 17.8824 16.0961C17.9549 16.0244 17.9957 15.9271 17.9959 15.8256V7.59888C17.9957 7.4974 17.9549 7.40012 17.8824 7.32836C17.8099 7.2566 17.7116 7.21621 17.6091 7.21604H17.185Z" fill="#2A2A2A"/>
<path d="M15.3793 7.77066L7.98386 9.82993C7.9494 9.83964 7.91908 9.86019 7.89747 9.88847C7.87586 9.91675 7.86414 9.95123 7.86409 9.98669V15.1689C7.86416 15.4257 7.95628 15.6741 8.12407 15.8699C8.29186 16.0658 8.52442 16.1963 8.78035 16.2383L11.1914 16.6367C11.3333 16.6604 11.4785 16.6562 11.6188 16.6243C11.759 16.5924 11.8915 16.5335 12.0088 16.4509C12.126 16.3683 12.2257 16.2636 12.302 16.1429C12.3784 16.0222 12.43 15.8878 12.4539 15.7473C12.4639 15.6876 12.4689 15.6272 12.4689 15.5666V15.1132L15.3852 15.8957C15.4273 15.9068 15.4721 15.901 15.5099 15.8795C15.5477 15.858 15.5753 15.8226 15.5868 15.781C15.5907 15.7671 15.5927 15.7527 15.5927 15.7383V7.92742C15.5928 7.90607 15.5886 7.88491 15.5805 7.86515C15.5723 7.84539 15.5602 7.82742 15.5451 7.81226C15.5299 7.7971 15.5118 7.78505 15.4919 7.7768C15.472 7.76855 15.4507 7.76426 15.4291 7.76418C15.4123 7.76393 15.3955 7.76611 15.3793 7.77066ZM11.4813 15.5627C11.481 15.5915 11.4692 15.619 11.4485 15.6393C11.4278 15.6595 11.3998 15.6709 11.3707 15.6709H11.3544L8.94331 15.2732C8.91776 15.2689 8.89456 15.2558 8.8778 15.2363C8.86103 15.2167 8.85178 15.1919 8.85168 15.1663V14.1376L11.482 14.8437L11.4813 15.5627ZM6.87846 10.0877H6.38499C6.29844 10.0873 6.21266 10.1039 6.13262 10.1365C6.05258 10.1691 5.97987 10.2171 5.9187 10.2777C5.85753 10.3383 5.80911 10.4103 5.77625 10.4896C5.74339 10.5688 5.72673 10.6537 5.72725 10.7394V13.017C5.72682 13.1026 5.74354 13.1874 5.77644 13.2666C5.80934 13.3458 5.85777 13.4177 5.91893 13.4783C5.9801 13.5388 6.05278 13.5867 6.13278 13.6193C6.21277 13.6519 6.2985 13.6684 6.38499 13.668H6.87846C6.92192 13.668 6.9636 13.6509 6.99439 13.6206C7.02518 13.5902 7.04256 13.5491 7.04273 13.506V10.251C7.04256 10.2079 7.0252 10.1667 6.99443 10.1362C6.96366 10.1057 6.92198 10.0886 6.87846 10.0884V10.0877Z" fill="white"/>
<path d="M11.3714 17.0312C11.2887 17.0314 11.2062 17.0246 11.1246 17.0111L8.71424 16.6128C8.36758 16.5566 8.05248 16.38 7.82545 16.1147C7.59841 15.8494 7.47429 15.5127 7.47533 15.165V9.9867C7.47581 9.8677 7.51531 9.75208 7.5879 9.65722C7.66049 9.56236 7.76223 9.4934 7.87783 9.4607L15.2733 7.40273C15.3233 7.38835 15.3751 7.38115 15.4271 7.38135C15.5735 7.38187 15.7137 7.43987 15.8169 7.54263C15.9201 7.64538 15.9779 7.78448 15.9775 7.92937V15.7337C15.9774 15.7816 15.971 15.8293 15.9585 15.8756C15.9202 16.0153 15.8274 16.1343 15.7005 16.2064C15.5736 16.2784 15.423 16.2976 15.2818 16.2597L12.8537 15.6074C12.852 15.6745 12.8454 15.7414 12.8341 15.8076C12.7753 16.1495 12.5962 16.4599 12.3285 16.6838C12.0609 16.9078 11.7218 17.0308 11.3714 17.0312ZM8.24957 10.1532V15.165C8.24895 15.3307 8.30784 15.4912 8.41573 15.618C8.52362 15.7447 8.67348 15.8293 8.83859 15.8568L11.2496 16.2552C11.3414 16.2707 11.4354 16.2681 11.5261 16.2476C11.6169 16.2271 11.7026 16.1891 11.7785 16.1357C11.8544 16.0823 11.9189 16.0147 11.9683 15.9366C12.0177 15.8585 12.051 15.7715 12.0664 15.6806C12.0732 15.6417 12.0765 15.6022 12.0762 15.5627V14.6053L15.2 15.4442V8.21763L8.24957 10.1532ZM11.3694 16.0524L11.2784 16.0434L8.87982 15.6482C8.76382 15.6291 8.65846 15.5698 8.58248 15.4809C8.5065 15.3921 8.46483 15.2795 8.46489 15.1631V13.633L11.8681 14.547V15.5627C11.8673 15.6931 11.8142 15.8179 11.7206 15.9097C11.627 16.0015 11.5005 16.0528 11.3688 16.0524H11.3694ZM9.2365 14.9305L11.0926 15.2369V15.1333L9.2365 14.6351V14.9305ZM6.88042 14.0495H6.38237C6.10465 14.0495 5.8383 13.9403 5.64192 13.746C5.44554 13.5516 5.33522 13.288 5.33522 13.0131V10.7355C5.33522 10.4606 5.44554 10.197 5.64192 10.0026C5.8383 9.80828 6.10465 9.69908 6.38237 9.69908H6.87715C7.02314 9.69977 7.16293 9.75756 7.26604 9.85986C7.36915 9.96216 7.42721 10.1007 7.42755 10.2452V13.5002C7.42773 13.5719 7.4136 13.643 7.38597 13.7092C7.35835 13.7755 7.31777 13.8358 7.26658 13.8865C7.21538 13.9372 7.15457 13.9775 7.08763 14.0049C7.02069 14.0323 6.94894 14.0464 6.87649 14.0463L6.88042 14.0495ZM6.38891 10.4693C6.31711 10.4695 6.24829 10.4978 6.19751 10.548C6.14674 10.5983 6.11814 10.6664 6.11796 10.7375V13.015C6.11796 13.0862 6.14651 13.1544 6.19732 13.2047C6.24814 13.255 6.31705 13.2832 6.38891 13.2832H6.65921V10.4693H6.38891Z" fill="#2A2A2A"/>
</g>
<defs>
<clipPath id="clip0_277_2080">
<rect width="24" height="24" fill="white"/>
</clipPath>
</defs>
</svg>
