<svg width="12" height="20" viewBox="0 0 12 20" fill="none" xmlns="http://www.w3.org/2000/svg">
<path d="M3.14945 3.85957C3.14945 3.7349 3.16677 3.46565 3.2014 3.05355C3.23863 2.64058 3.39446 2.20856 3.67411 1.7549C3.95115 1.30297 4.40048 0.896931 5.02556 0.537639C5.64805 0.180079 6.54757 0 7.72155 0H11.0288V3.60417H8.60722C8.36741 3.60417 8.14404 3.69421 7.94232 3.87169C7.74233 4.04918 7.6393 4.218 7.6393 4.3747V6.61703H11.0279C10.9924 7.05597 10.9534 7.48279 10.9084 7.8949L10.7742 8.98403C10.7206 9.35198 10.666 9.69309 10.6123 10.0074H7.61506V20H3.14945V10.0065H0.971191V6.61703H3.14945V3.85957Z" fill="#073044"/>
</svg>
