<svg width="108" height="30" viewBox="0 0 108 30" fill="none" xmlns="http://www.w3.org/2000/svg">
<g clip-path="url(#clip0_15_3201)">
<path d="M28.0845 13.1854L24.735 9.60954C24.6296 9.4968 24.4655 9.46103 24.3225 9.51695C24.1795 9.57377 24.0851 9.71217 24.0851 9.86618V11.2382C22.1646 11.2761 18.909 11.6328 16.2651 13.6765V4.28059H17.6062C17.7602 4.28059 17.8986 4.18663 17.9554 4.0432C18.0122 3.89972 17.9755 3.73656 17.8628 3.63117L14.4107 0.398141C14.2631 0.260159 14.0303 0.263389 13.8863 0.408668L10.7056 3.6417C10.5993 3.74983 10.5681 3.91072 10.6268 4.0505C10.6855 4.18986 10.822 4.28059 10.9733 4.28059H12.3144V9.06467C9.66925 7.02186 6.4108 6.64314 4.49437 6.6246V5.25591C4.49437 5.1019 4.39993 4.9635 4.25698 4.90668C4.11308 4.85123 3.94992 4.88557 3.84447 4.99926L0.495054 8.57465C0.426332 8.64797 0.389669 8.74558 0.394215 8.84601C0.397863 8.94637 0.441883 9.04081 0.516107 9.10863L3.86553 12.1661C3.9361 12.2303 4.02684 12.2642 4.11852 12.2642C4.16984 12.2642 4.22122 12.2532 4.26978 12.2321C4.40639 12.1716 4.49437 12.0369 4.49437 11.8884V10.5801C5.90535 10.596 8.2115 10.8687 9.92919 12.2147C11.2409 13.2423 12.0448 14.796 12.3143 16.7833V28.6301C12.3143 28.8373 12.483 29.006 12.6901 29.006H15.8893C16.0964 29.006 16.2651 28.8373 16.2651 28.6301L16.2614 21.4436C16.5346 19.4068 17.3385 17.8531 18.6503 16.8255C20.3719 15.4759 22.6562 15.2134 24.0851 15.1926V16.4992C24.0851 16.6477 24.1731 16.7824 24.3097 16.8429C24.3582 16.864 24.4096 16.875 24.4609 16.875C24.5526 16.875 24.6433 16.841 24.7139 16.7769L28.0633 13.7199C28.1376 13.652 28.1816 13.5567 28.1852 13.4568C28.1898 13.3568 28.1532 13.2588 28.0845 13.1854ZM24.8368 15.6485V14.8134C24.8368 14.7875 24.827 14.7648 24.822 14.7404C24.8172 14.7169 24.8169 14.6921 24.8078 14.6704C24.7969 14.6442 24.7783 14.6234 24.7621 14.6005C24.7505 14.5841 24.7425 14.565 24.7285 14.5507C24.708 14.5298 24.6817 14.5165 24.657 14.5009C24.6409 14.4907 24.6277 14.4769 24.61 14.4692C24.5856 14.4586 24.5577 14.457 24.531 14.4518C24.5093 14.4475 24.4895 14.4381 24.4665 14.4376C24.4649 14.4376 24.4628 14.4378 24.4612 14.4377C24.4611 14.4377 24.461 14.4376 24.461 14.4376C24.4609 14.4376 24.4609 14.4377 24.4608 14.4377C22.9929 14.4117 20.241 14.6238 18.1865 16.2352C16.7162 17.3874 15.8178 19.1061 15.5135 21.3941V28.2543H13.0651L13.0624 16.7338C12.7617 14.4954 11.8634 12.7766 10.3931 11.6244C8.34051 10.0159 5.59266 9.82928 4.11918 9.82701C4.11894 9.82701 4.11882 9.82689 4.11858 9.82689C4.1184 9.82689 4.11828 9.82701 4.11811 9.82701C4.11655 9.82701 4.11464 9.82689 4.11308 9.82689C4.08892 9.82731 4.06798 9.83706 4.04514 9.84178C4.01984 9.84698 3.9931 9.84812 3.9699 9.85823C3.94789 9.86774 3.9309 9.88443 3.91128 9.89776C3.89113 9.91152 3.86858 9.92193 3.85147 9.93927C3.83359 9.95739 3.82294 9.98084 3.80901 10.0023C3.79657 10.0213 3.78066 10.0377 3.77181 10.059C3.76218 10.0821 3.76158 10.1087 3.75667 10.1339C3.75219 10.157 3.74268 10.1783 3.74268 10.2027V11.0377L1.30345 8.8103L3.74268 6.20611V6.99578C3.74268 6.99662 3.74322 6.99734 3.74322 6.99818C3.74322 6.99907 3.74268 6.99991 3.74268 7.00081C3.7431 7.03191 3.75392 7.05948 3.76146 7.08831C3.76618 7.10637 3.76594 7.12629 3.77318 7.14321C3.78628 7.17378 3.80769 7.19866 3.82809 7.22444C3.83748 7.23628 3.84304 7.25105 3.85374 7.26176C3.87863 7.28646 3.90985 7.30339 3.94083 7.32043C3.95225 7.32665 3.96086 7.33676 3.97289 7.34178C4.01774 7.36062 4.06685 7.37115 4.11846 7.37115C4.12032 7.37115 4.12211 7.37115 4.12307 7.37115C5.90505 7.34639 9.25908 7.61912 11.9054 9.69303C12.0897 9.83789 12.2666 9.9873 12.438 10.144C12.441 10.1467 12.4455 10.1455 12.4485 10.1481C12.5142 10.2045 12.5969 10.2421 12.69 10.2421C12.6903 10.2421 12.6904 10.242 12.6907 10.242C12.6908 10.242 12.6909 10.2421 12.691 10.2421C12.7071 10.2421 12.7221 10.2344 12.7381 10.2323C12.772 10.2278 12.8066 10.2249 12.837 10.2119C12.8513 10.2058 12.8624 10.1935 12.876 10.1856C12.906 10.1679 12.9359 10.1505 12.9598 10.1255C12.9625 10.1228 12.9661 10.1221 12.9687 10.1192C12.9848 10.1015 12.9919 10.0798 13.004 10.0601C13.0159 10.041 13.0299 10.0241 13.0382 10.003C13.0501 9.97259 13.0535 9.94119 13.0571 9.90925C13.0589 9.89447 13.0659 9.88144 13.0659 9.86624V9.84986C13.0658 9.84944 13.0659 9.84908 13.0659 9.8486V3.90528C13.0659 3.6981 12.8972 3.52991 12.69 3.52991C12.6845 3.52991 12.6798 3.53284 12.6744 3.53308C12.669 3.53284 12.6643 3.52991 12.6588 3.52991H11.8695L14.1648 1.1966L16.6554 3.52991H15.889C15.6818 3.52991 15.5132 3.6981 15.5132 3.90528V14.4771C15.5132 14.4968 15.5215 14.5138 15.5245 14.5327C15.5286 14.5597 15.5306 14.5864 15.5406 14.6123C15.551 14.6388 15.568 14.6607 15.5838 14.6839C15.5942 14.6993 15.5993 14.7168 15.6122 14.7309C15.6141 14.7329 15.6167 14.7335 15.6186 14.7355C15.6479 14.7662 15.6836 14.7896 15.7218 14.8091C15.729 14.8126 15.7345 14.8193 15.7417 14.8224C15.787 14.8418 15.8366 14.8528 15.889 14.8528C15.9824 14.8528 16.0653 14.8151 16.1311 14.7584C16.1345 14.7555 16.1396 14.7568 16.1428 14.7538C16.3124 14.598 16.4903 14.4485 16.6745 14.3037C19.3191 12.2312 22.6822 11.9498 24.456 11.9818C24.4567 11.9818 24.4572 11.9814 24.4579 11.9813C24.4588 11.9813 24.4597 11.9818 24.4606 11.9818C24.6542 11.9818 24.8085 11.8327 24.8286 11.6443C24.83 11.6325 24.8362 11.6229 24.8364 11.6106C24.8364 11.6098 24.8359 11.6091 24.8359 11.6083C24.8359 11.6075 24.8364 11.6068 24.8364 11.6061V10.8159L27.2756 13.4211L24.8368 15.6485Z" fill="#3ADB85"/>
<path d="M0.751692 7.68893V3.81563C1.42085 4.00995 2.65556 4.18872 4.24412 3.62771C4.39352 3.57501 4.49436 3.4329 4.49436 3.27387V1.39057C4.49436 1.26868 4.43479 1.15456 4.33581 1.08393C4.23407 1.01335 4.10757 0.99499 3.99387 1.03674C1.93324 1.76271 0.606832 1.08805 0.553661 1.06012C0.436314 0.996903 0.297017 1.00097 0.183318 1.06838C0.0696787 1.1362 0 1.25857 0 1.39057V3.26651C0 3.27112 0 3.27614 0 3.28075V7.68893C0 7.89611 0.168664 8.06429 0.375846 8.06429C0.583028 8.06429 0.751692 7.89605 0.751692 7.68893ZM0.751692 1.93233C1.34842 2.10602 2.39617 2.26691 3.74273 1.90117V3.00251C2.24766 3.46311 1.17246 3.18493 0.751692 3.02769V1.93233Z" fill="#3ADB85"/>
<path d="M8.06478 12.3531C7.09311 11.8774 6.36989 12.2715 6.02706 12.6446C5.92072 12.6639 5.79607 12.7097 5.67597 12.8096C5.42938 13.0158 5.31209 13.3688 5.32579 13.8464V14.0269C5.26436 14.1653 5.18739 14.4138 5.25886 14.6887C5.29738 14.839 5.39451 15.0407 5.62735 15.214C5.76946 15.7007 6.19016 16.4029 7.03169 16.4029C7.04179 16.4029 7.0528 16.4029 7.06285 16.4029C7.91442 16.3928 8.37639 15.7062 8.52676 15.2158C8.76235 15.0426 8.85858 14.8391 8.898 14.6888C8.96947 14.4138 8.8925 14.1644 8.83107 14.027L8.83017 13.8592C8.83292 13.7969 8.83203 13.7373 8.83017 13.6823C8.85308 12.9269 8.3572 12.4906 8.06478 12.3531ZM8.01891 14.6502C7.92268 14.7025 7.85389 14.7978 7.83099 14.9051C7.82459 14.9362 7.67058 15.6521 7.0775 15.6521C7.0656 15.6521 7.05735 15.6521 7.04819 15.6521C6.48538 15.6521 6.34148 14.9866 6.32677 14.9124C6.30661 14.8006 6.23693 14.7043 6.13795 14.6503C6.07837 14.6172 6.00409 14.565 5.98579 14.5018C5.96653 14.4312 6.00594 14.3377 6.0188 14.3166C6.05636 14.257 6.07562 14.1882 6.07658 14.1177V13.8362C6.06558 13.4641 6.15816 13.3853 6.13615 13.3807C6.28556 13.4127 6.43867 13.3459 6.5248 13.223C6.59262 13.124 6.96937 12.6528 7.73475 13.0278C7.77231 13.0471 8.09684 13.224 8.07944 13.6676C8.07854 13.6768 8.07854 13.686 8.07944 13.6961L8.08034 14.1177C8.08123 14.1837 8.10235 14.2543 8.13536 14.3111C8.15097 14.3377 8.19039 14.4312 8.17113 14.5018C8.15277 14.565 8.07848 14.6172 8.01891 14.6502Z" fill="#3ADB85"/>
<path d="M8.02715 16.4606C7.91901 16.4404 7.81357 16.4798 7.73289 16.5504C7.6522 16.6219 7.60549 16.7237 7.60453 16.8309C7.60364 17.1683 7.45052 17.4808 7.18652 17.688L7.07838 17.7723L6.97114 17.6889C6.70625 17.4808 6.55313 17.1683 6.55224 16.8309C6.55134 16.7237 6.50457 16.622 6.42388 16.5504C6.3432 16.4798 6.23686 16.4404 6.12962 16.4606C4.95728 16.6073 3.71521 17.1701 3.74272 18.2985V22.2236C3.74272 22.8175 4.2267 23.3015 4.82163 23.3015C4.93731 23.3015 5.04341 23.2694 5.14796 23.2354V27.6575C5.14796 28.2927 5.66585 28.8106 6.30109 28.8106C6.60248 28.8106 6.87264 28.688 7.07838 28.4976C7.28419 28.688 7.55429 28.8106 7.85574 28.8106C8.49098 28.8106 9.00887 28.2927 9.00887 27.6575V23.2354C9.11342 23.2694 9.21952 23.3015 9.3352 23.3015C9.93013 23.3015 10.4141 22.8175 10.4141 22.2236L10.4132 18.3076C10.4416 17.1701 9.19955 16.6073 8.02715 16.4606ZM9.66248 22.2236C9.66248 22.4041 9.51582 22.5499 9.33526 22.5499C9.15469 22.5499 9.00893 22.4041 9.00893 22.2236V20.1006V19.9476C9.00893 19.7404 8.84027 19.5717 8.63309 19.5717C8.4259 19.5717 8.25724 19.7404 8.25724 19.9476V20.1006V22.2236V27.6575C8.25724 27.8793 8.07757 28.059 7.85574 28.059C7.6339 28.059 7.45423 27.8793 7.45423 27.6575V24.1907C7.45423 23.9835 7.28557 23.8149 7.07838 23.8149C6.8712 23.8149 6.70254 23.9835 6.70254 24.1907V27.6575C6.70254 27.8793 6.52287 28.059 6.30103 28.059C6.0792 28.059 5.89953 27.8793 5.89953 27.6575V22.2236V20.1006V19.9476C5.89953 19.7404 5.73086 19.5717 5.52368 19.5717C5.3165 19.5717 5.14784 19.7404 5.14784 19.9476V20.1006V22.2236C5.14784 22.4041 5.00208 22.5499 4.82151 22.5499C4.64095 22.5499 4.49429 22.4041 4.49429 22.2236L4.4934 18.2893C4.47874 17.6752 5.34132 17.3882 5.85461 17.2727C5.9518 17.6678 6.17908 18.0216 6.50816 18.2801L6.84734 18.545C6.98299 18.6514 7.17366 18.6514 7.30931 18.545L7.64939 18.2792C7.97847 18.0216 8.20395 17.6677 8.30204 17.2727C8.81539 17.3891 9.67791 17.6778 9.66236 18.2984V22.2236H9.66248Z" fill="#3ADB85"/>
<path d="M40.8272 10.4005L40.3694 11.5214C40.322 11.6477 40.2115 11.7266 40.1484 11.7266H34.8915C34.7967 11.7266 34.7336 11.6634 34.7336 11.5687V10.3847L38.3645 5.58562H35.1756C35.0967 5.58562 35.0651 5.4909 35.0651 5.38039V4.14904C35.0651 3.99117 35.1125 3.92803 35.2861 3.92803H40.2905C40.4168 3.92803 40.5588 3.99117 40.5588 4.08589V5.31725L36.9911 10.069H40.5904C40.8904 10.069 40.8904 10.1795 40.8904 10.2269C40.8904 10.3058 40.843 10.3689 40.8272 10.4005ZM45.5474 7.92203L46.3841 4.11747C46.4314 3.94381 46.5104 3.78595 46.6524 3.78595C46.7156 3.78595 46.8892 3.80174 46.9366 3.80174L48.0417 3.94381C48.2785 3.97539 48.389 3.99117 48.389 4.10168C48.389 4.16483 48.3416 4.25955 48.31 4.38584L46.763 10.0848C46.4788 11.1109 46.0526 12.7211 45.7053 13.5894C45.2474 14.7418 44.2687 15.0733 43.3846 15.0733C42.5164 15.0733 41.2377 14.6471 41.2377 14.3472C41.2377 14.284 41.2692 14.2209 41.3008 14.1577L41.7744 13.1316C41.806 13.0527 41.8691 13.0211 41.9165 13.0211C42.0743 13.0211 42.5637 13.4157 43.2583 13.4157C44.0792 13.4157 44.316 12.9264 44.5213 12.2475L44.6791 11.7266H44.0161C43.8109 11.7266 43.7793 11.6634 43.7319 11.5214L41.3166 4.38584C41.3008 4.35426 41.2534 4.22797 41.2377 4.11747C41.2377 3.99117 41.3482 3.97539 41.585 3.94381L42.8952 3.80174C42.9426 3.80174 43.1163 3.78595 43.1478 3.78595C43.2741 3.78595 43.3215 3.94381 43.3688 4.10168L44.395 7.92203C44.5844 8.63242 44.9001 10.1164 44.9949 10.6531H45.0264C45.1054 10.0374 45.4842 8.20618 45.5474 7.92203ZM51.8778 5.8382V10.1164C52.162 10.2742 52.4145 10.4163 53.0302 10.4163C54.1353 10.4163 54.4194 9.62697 54.4194 7.76416C54.4194 6.13814 54.1195 5.23831 53.1407 5.23831C52.4777 5.23831 52.0988 5.63298 51.8778 5.8382ZM51.8778 11.5845V14.4734C51.8778 14.6945 51.7673 14.726 51.5779 14.7576L50.2518 15.026C50.2044 15.0418 50.0623 15.0733 49.9834 15.0733C49.9045 15.0733 49.8729 15.0102 49.8729 14.7418V6.73803C49.8729 4.51213 49.573 4.63842 49.573 4.27533C49.573 4.1964 49.6361 4.13325 49.7466 4.10168L50.9464 3.70702C51.0411 3.67544 51.12 3.65966 51.1832 3.65966C51.3884 3.65966 51.4989 3.9596 51.6726 4.48056C52.0199 4.14904 52.6356 3.65966 53.6933 3.65966C55.4456 3.65966 56.4243 5.03309 56.4243 7.68523C56.4243 10.4479 55.5719 11.995 53.5196 11.995C52.604 11.995 52.2093 11.7582 51.8778 11.5845ZM61.3655 10.1321L61.6813 11.4266C61.697 11.5056 61.7128 11.5056 61.7128 11.5529C61.7128 11.7739 60.8761 11.995 60.1184 11.995C58.1766 11.995 58.1766 10.4005 58.1766 8.94815V0.897009C58.1766 0.66021 58.2871 0.66021 58.4766 0.61285L59.8027 0.344479C59.85 0.344479 59.9921 0.297119 60.0237 0.297119C60.15 0.297119 60.1815 0.360265 60.1815 0.628637V9.23231C60.1815 9.73748 60.1815 10.1795 60.6236 10.1795C60.9393 10.1795 61.1445 10.0374 61.2392 10.0374C61.3024 10.0374 61.3497 10.069 61.3655 10.1321ZM65.6595 10.4952C65.6595 11.3319 64.9806 11.995 64.1597 11.995C63.3546 11.995 62.66 11.3319 62.66 10.4952C62.66 9.65855 63.3546 8.99551 64.1597 8.99551C64.9806 8.99551 65.6595 9.65855 65.6595 10.4952ZM72.4161 9.95849L72.8266 11.0004C72.8424 11.0478 72.8739 11.1109 72.8739 11.1583C72.8739 11.5371 71.5952 11.995 70.648 11.995C68.4537 11.995 67.1434 10.6531 67.1434 7.98517C67.1434 5.31724 68.4853 3.65966 70.8217 3.65966C71.6741 3.65966 73.0634 4.13325 73.0634 4.62264C73.0634 4.67 73.0318 4.71736 73.016 4.76472L72.4319 5.79084C72.4003 5.82241 72.3688 5.86977 72.3214 5.86977C72.1635 5.86977 71.6426 5.23831 70.8217 5.23831C69.7482 5.23831 69.2746 6.05921 69.2746 7.87467C69.2746 9.61119 69.685 10.4163 70.9006 10.4163C71.7057 10.4163 72.0215 9.87956 72.3056 9.87956C72.353 9.87956 72.3845 9.91113 72.4161 9.95849ZM80.0568 11.4424L78.857 11.9318C78.7939 11.9476 78.7149 11.995 78.6518 11.995C78.5097 11.995 78.2729 11.4424 78.194 11.0478C77.8783 11.3635 77.3257 11.995 76.1417 11.995C74.6894 11.995 73.7738 11.0478 73.7738 9.56383C73.7738 6.8959 76.6469 6.8959 77.894 6.8959V6.40652C77.894 5.69612 77.7678 5.23831 76.7732 5.23831C75.8892 5.23831 75.0209 5.71191 74.8157 5.71191C74.7367 5.71191 74.6736 5.61719 74.6578 5.55404L74.3421 4.59106C74.3105 4.52792 74.2947 4.46477 74.2947 4.40162C74.2947 4.03853 75.8576 3.65966 77.0731 3.65966C79.0465 3.65966 79.7884 4.55949 79.7884 6.20129V9.2481C79.7884 10.7794 80.1989 10.9846 80.1989 11.3003C80.1989 11.3635 80.1357 11.4109 80.0568 11.4424ZM77.894 9.92692V8.1904C77.4994 8.1904 75.6681 8.06411 75.6681 9.45332C75.6681 10.069 76.1102 10.5268 76.7101 10.5268C77.2942 10.5268 77.7046 10.1164 77.894 9.92692ZM83.9245 6.23286V11.5056C83.9245 11.6792 83.8929 11.7266 83.7035 11.7266H82.1406C81.9512 11.7266 81.9196 11.6792 81.9196 11.5056V6.73803C81.9196 5.00151 81.5092 4.71736 81.5092 4.35426C81.5092 4.29112 81.5723 4.24376 81.6512 4.21219L82.851 3.7228C82.9142 3.70702 82.9931 3.65966 83.0563 3.65966C83.2457 3.65966 83.5614 4.37005 83.6404 4.90679C83.9403 4.5437 84.5244 3.65966 85.5979 3.65966C86.0557 3.65966 86.5135 3.81752 86.5135 4.02275C86.5135 4.08589 86.4977 4.14904 86.4819 4.18061L85.9925 5.50668C85.9768 5.55404 85.9294 5.64876 85.8663 5.64876C85.7715 5.64876 85.4874 5.47511 85.1243 5.47511C84.6349 5.47511 84.1297 6.01185 83.9245 6.23286ZM92.9386 9.94271L93.3333 10.8899C93.3649 10.9373 93.3807 11.0004 93.3807 11.0636C93.3807 11.474 91.802 11.995 90.5549 11.995C88.471 11.995 87.0187 10.811 87.0187 7.90624C87.0187 5.39618 88.3605 3.65966 90.4759 3.65966C93.1596 3.65966 93.6332 6.05921 93.6332 7.96939C93.6332 8.26933 93.5701 8.36405 93.2702 8.36405H89.0236C89.0236 9.2481 89.2762 10.3374 90.7601 10.3374C91.8967 10.3374 92.544 9.81641 92.765 9.81641C92.8439 9.81641 92.9071 9.87956 92.9386 9.94271ZM89.0236 6.8959H91.5021C91.5021 6.24865 91.4547 5.12781 90.3654 5.12781C89.1341 5.12781 89.0709 6.45388 89.0236 6.8959ZM100.832 9.94271L101.227 10.8899C101.258 10.9373 101.274 11.0004 101.274 11.0636C101.274 11.474 99.6953 11.995 98.4481 11.995C96.3643 11.995 94.912 10.811 94.912 7.90624C94.912 5.39618 96.2538 3.65966 98.3692 3.65966C101.053 3.65966 101.527 6.05921 101.527 7.96939C101.527 8.26933 101.463 8.36405 101.163 8.36405H96.9169C96.9169 9.2481 97.1694 10.3374 98.6534 10.3374C99.79 10.3374 100.437 9.81641 100.658 9.81641C100.737 9.81641 100.8 9.87956 100.832 9.94271ZM96.9169 6.8959H99.3953C99.3953 6.24865 99.348 5.12781 98.2587 5.12781C97.0274 5.12781 96.9642 6.45388 96.9169 6.8959ZM105.268 6.23286V11.5056C105.268 11.6792 105.236 11.7266 105.047 11.7266H103.484C103.295 11.7266 103.263 11.6792 103.263 11.5056V6.73803C103.263 5.00151 102.853 4.71736 102.853 4.35426C102.853 4.29112 102.916 4.24376 102.995 4.21219L104.194 3.7228C104.258 3.70702 104.337 3.65966 104.4 3.65966C104.589 3.65966 104.905 4.37005 104.984 4.90679C105.284 4.5437 105.868 3.65966 106.941 3.65966C107.399 3.65966 107.857 3.81752 107.857 4.02275C107.857 4.08589 107.841 4.14904 107.825 4.18061L107.336 5.50668C107.32 5.55404 107.273 5.64876 107.21 5.64876C107.115 5.64876 106.831 5.47511 106.468 5.47511C105.978 5.47511 105.473 6.01185 105.268 6.23286Z" fill="#3ADB85"/>
<path d="M107.857 27.178H34.7336V29.0061H107.857V27.178Z" fill="#3ADB85"/>
<path d="M36.9273 17.7157H40.1301V18.1691H37.4319V20.1361H39.8376V20.5895H37.4319V22.8271H36.9273V17.7157ZM44.5358 18.0192C44.9428 18.2508 45.2658 18.564 45.5047 18.9588C45.7435 19.3537 45.863 19.7876 45.863 20.2604C45.863 20.7333 45.7435 21.1696 45.5047 21.5693C45.2658 21.9691 44.9428 22.286 44.5358 22.52C44.1287 22.7539 43.6815 22.8709 43.194 22.8709C42.7065 22.8709 42.2592 22.7539 41.8522 22.52C41.4451 22.286 41.1221 21.9691 40.8833 21.5693C40.6444 21.1696 40.525 20.7333 40.525 20.2604C40.525 19.7876 40.6444 19.3537 40.8833 18.9588C41.1221 18.564 41.4451 18.2508 41.8522 18.0192C42.2592 17.7877 42.7065 17.6719 43.194 17.6719C43.6815 17.6719 44.1287 17.7877 44.5358 18.0192ZM42.1191 18.4104C41.7876 18.6005 41.5243 18.8589 41.3293 19.1855C41.1343 19.5121 41.0368 19.8705 41.0368 20.2604C41.0368 20.6504 41.1343 21.0112 41.3293 21.3427C41.5243 21.6742 41.7876 21.9362 42.1191 22.1287C42.4505 22.3213 42.8113 22.4176 43.2013 22.4176C43.5864 22.4176 43.9435 22.3213 44.2725 22.1287C44.6016 21.9362 44.8636 21.6742 45.0586 21.3427C45.2536 21.0112 45.3511 20.6504 45.3511 20.2604C45.3511 19.8705 45.2536 19.5121 45.0586 19.1855C44.8636 18.8589 44.6016 18.6005 44.2725 18.4104C43.9435 18.2203 43.5864 18.1252 43.2013 18.1252C42.8113 18.1252 42.4505 18.2203 42.1191 18.4104ZM50.3454 22.8271L49.2413 21.1599C49.0853 21.1696 48.9658 21.1745 48.883 21.1745H47.479V22.8271H46.9744V17.7157H48.883C49.5216 17.7157 50.0152 17.8632 50.3637 18.1581C50.7123 18.4531 50.8865 18.8711 50.8865 19.4122C50.8865 19.8363 50.7842 20.1898 50.5794 20.4725C50.3747 20.7552 50.0822 20.9527 49.7019 21.0648L50.9304 22.8271H50.3454ZM48.883 20.7211C49.3705 20.7211 49.7458 20.6102 50.0091 20.3884C50.2723 20.1666 50.4039 19.8461 50.4039 19.4268C50.4039 19.0173 50.2723 18.7054 50.0091 18.4909C49.7458 18.2764 49.3705 18.1691 48.883 18.1691H47.479V20.7211H48.883ZM57.9722 17.7157L56.0052 21.0063V22.8271H55.5006V21.0063L53.5044 17.7157H54.0308L55.7566 20.4652L57.4457 17.7157H57.9722ZM62.0196 18.0192C62.4266 18.2508 62.7496 18.564 62.9885 18.9588C63.2273 19.3537 63.3468 19.7876 63.3468 20.2604C63.3468 20.7333 63.2273 21.1696 62.9885 21.5693C62.7496 21.9691 62.4266 22.286 62.0196 22.52C61.6125 22.7539 61.1653 22.8709 60.6778 22.8709C60.1903 22.8709 59.743 22.7539 59.3359 22.52C58.9289 22.286 58.6059 21.9691 58.3671 21.5693C58.1282 21.1696 58.0088 20.7333 58.0088 20.2604C58.0088 19.7876 58.1282 19.3537 58.3671 18.9588C58.6059 18.564 58.9289 18.2508 59.3359 18.0192C59.743 17.7877 60.1903 17.6719 60.6778 17.6719C61.1653 17.6719 61.6125 17.7877 62.0196 18.0192ZM59.6028 18.4104C59.2714 18.6005 59.0081 18.8589 58.8131 19.1855C58.6181 19.5121 58.5206 19.8705 58.5206 20.2604C58.5206 20.6504 58.6181 21.0112 58.8131 21.3427C59.0081 21.6742 59.2714 21.9362 59.6028 22.1287C59.9343 22.3213 60.2951 22.4176 60.6851 22.4176C61.0702 22.4176 61.4273 22.3213 61.7563 22.1287C62.0854 21.9362 62.3474 21.6742 62.5424 21.3427C62.7374 21.0112 62.8349 20.6504 62.8349 20.2604C62.8349 19.8705 62.7374 19.5121 62.5424 19.1855C62.3474 18.8589 62.0854 18.6005 61.7563 18.4104C61.4273 18.2203 61.0702 18.1252 60.6851 18.1252C60.2951 18.1252 59.9343 18.2203 59.6028 18.4104ZM65.2736 21.9788C65.5587 22.2713 65.9548 22.4176 66.4618 22.4176C66.9688 22.4176 67.3637 22.2713 67.6464 21.9788C67.9292 21.6863 68.0705 21.2769 68.0705 20.7504V17.7084H68.5751V20.7504C68.5751 21.4134 68.3886 21.9325 68.0157 22.3079C67.6428 22.6833 67.1248 22.8709 66.4618 22.8709C65.7988 22.8709 65.2797 22.6833 64.9043 22.3079C64.5289 21.9325 64.3412 21.4134 64.3412 20.7504V17.7084H64.8458V20.7504C64.8458 21.2769 64.9884 21.6863 65.2736 21.9788ZM73.4378 22.8271L72.3336 21.1599C72.1776 21.1696 72.0582 21.1745 71.9753 21.1745H70.5713V22.8271H70.0668V17.7157H71.9753C72.6139 17.7157 73.1075 17.8632 73.4561 18.1581C73.8046 18.4531 73.9789 18.8711 73.9789 19.4122C73.9789 19.8363 73.8765 20.1898 73.6718 20.4725C73.467 20.7552 73.1745 20.9527 72.7943 21.0648L74.0228 22.8271H73.4378ZM71.9753 20.7211C72.4628 20.7211 72.8382 20.6102 73.1014 20.3884C73.3647 20.1666 73.4963 19.8461 73.4963 19.4268C73.4963 19.0173 73.3647 18.7054 73.1014 18.4909C72.8382 18.2764 72.4628 18.1691 71.9753 18.1691H70.5713V20.7211H71.9753ZM77.3645 17.7157H80.5673V18.1691H77.8691V20.1361H80.2748V20.5895H77.8691V22.8271H77.3645V17.7157ZM82.2747 21.9788C82.5599 22.2713 82.956 22.4176 83.463 22.4176C83.97 22.4176 84.3648 22.2713 84.6476 21.9788C84.9303 21.6863 85.0717 21.2769 85.0717 20.7504V17.7084H85.5763V20.7504C85.5763 21.4134 85.3898 21.9325 85.0169 22.3079C84.6439 22.6833 84.126 22.8709 83.463 22.8709C82.8 22.8709 82.2808 22.6833 81.9055 22.3079C81.5301 21.9325 81.3424 21.4134 81.3424 20.7504V17.7084H81.847V20.7504C81.847 21.2769 81.9896 21.6863 82.2747 21.9788ZM86.3441 17.7084H90.2269V18.1691H88.5378V22.8271H88.0332V18.1691H86.3441V17.7084ZM91.927 21.9788C92.2122 22.2713 92.6083 22.4176 93.1153 22.4176C93.6223 22.4176 94.0171 22.2713 94.2999 21.9788C94.5826 21.6863 94.724 21.2769 94.724 20.7504V17.7084H95.2285V20.7504C95.2285 21.4134 95.0421 21.9325 94.6691 22.3079C94.2962 22.6833 93.7783 22.8709 93.1153 22.8709C92.4523 22.8709 91.9331 22.6833 91.5577 22.3079C91.1824 21.9325 90.9947 21.4134 90.9947 20.7504V17.7084H91.4992V20.7504C91.4992 21.2769 91.6418 21.6863 91.927 21.9788ZM100.091 22.8271L98.9871 21.1599C98.8311 21.1696 98.7116 21.1745 98.6288 21.1745H97.2248V22.8271H96.7203V17.7157H98.6288C99.2674 17.7157 99.761 17.8632 100.11 18.1581C100.458 18.4531 100.632 18.8711 100.632 19.4122C100.632 19.8363 100.53 20.1898 100.325 20.4725C100.12 20.7552 99.828 20.9527 99.4478 21.0648L100.676 22.8271H100.091ZM98.6288 20.7211C99.1163 20.7211 99.4916 20.6102 99.7549 20.3884C100.018 20.1666 100.15 19.8461 100.15 19.4268C100.15 19.0173 100.018 18.7054 99.7549 18.4909C99.4916 18.2764 99.1163 18.1691 98.6288 18.1691H97.2248V20.7211H98.6288ZM102.007 17.7157H105.429V18.1691H102.512V19.9972H105.122V20.4506H102.512V22.3737H105.524V22.8271H102.007V17.7157Z" fill="#3ADB85"/>
</g>
<defs>
<clipPath id="clip0_15_3201">
<rect width="108" height="28.7089" fill="white" transform="translate(0 0.297119)"/>
</clipPath>
</defs>
</svg>
