<svg width="24" height="24" viewBox="0 0 24 24" fill="none" xmlns="http://www.w3.org/2000/svg">
<path d="M12 24C9.62663 24 7.30655 23.2962 5.33316 21.9776C3.35977 20.6591 1.8217 18.7849 0.913451 16.5922C0.00519941 14.3995 -0.232441 11.9867 0.230582 9.65892C0.693605 7.33115 1.83649 5.19295 3.51472 3.51472C5.19295 1.83649 7.33115 0.693605 9.65892 0.230582C11.9867 -0.232441 14.3995 0.00519941 16.5922 0.913451C18.7849 1.8217 20.6591 3.35977 21.9776 5.33316C23.2962 7.30655 24 9.62663 24 12C23.9965 15.1815 22.7311 18.2318 20.4815 20.4815C18.2318 22.7311 15.1815 23.9965 12 24ZM12 0.774874C9.77964 0.774357 7.60899 1.4323 5.76258 2.66549C3.91616 3.89868 2.47692 5.65172 1.62687 7.70292C0.776811 9.75412 0.55413 12.0113 0.986983 14.1891C1.41984 16.3669 2.48878 18.3673 4.05863 19.9376C5.62848 21.5078 7.62872 22.5772 9.80638 23.0105C11.984 23.4439 14.2413 23.2218 16.2927 22.3722C18.3441 21.5226 20.0975 20.0838 21.3311 18.2376C22.5647 16.3915 23.2232 14.221 23.2232 12.0007C23.2199 9.02486 22.0365 6.17184 19.9325 4.06739C17.8285 1.96293 14.9758 0.778858 12 0.774874Z" fill="#3ADB85"/>
<path d="M18.4381 15.0575C18.2644 14.8378 18.0107 14.6959 17.7326 14.6628C17.4545 14.6297 17.1746 14.7081 16.9542 14.8808L13.9609 17.2255C13.8124 17.3421 13.629 17.4054 13.4402 17.4055H11.2956C11.2261 17.4055 11.1574 17.3918 11.0933 17.3652C11.0291 17.3387 10.9708 17.2997 10.9218 17.2506C10.8727 17.2015 10.8337 17.1432 10.8072 17.0791C10.7806 17.015 10.7669 16.9462 10.7669 16.8768C10.7669 16.8074 10.7806 16.7386 10.8072 16.6745C10.8337 16.6103 10.8727 16.5521 10.9218 16.503C10.9708 16.4539 11.0291 16.4149 11.0933 16.3884C11.1574 16.3618 11.2261 16.3481 11.2956 16.3481H13.0955C13.3713 16.3412 13.6334 16.2268 13.826 16.0293C14.0185 15.8319 14.1263 15.567 14.1263 15.2911C14.1263 15.0153 14.0185 14.7504 13.826 14.5529C13.6334 14.3555 13.3713 14.2411 13.0955 14.2341L8.98094 14.2381H8.70494C8.13754 14.2393 7.58681 14.43 7.1403 14.7801L5.67365 15.9328C5.65188 15.9499 5.6337 15.9711 5.62014 15.9953C5.60658 16.0194 5.59791 16.046 5.59463 16.0735C5.59135 16.101 5.59352 16.1288 5.60102 16.1555C5.60851 16.1821 5.62119 16.207 5.63832 16.2288L8.49028 19.8355C8.50986 19.86 8.53471 19.8798 8.56298 19.8934C8.59126 19.907 8.62223 19.9141 8.65361 19.9141L12.1036 19.9435L13.0569 19.9515C13.6355 19.9568 14.1985 19.7639 14.6522 19.4048L18.2741 16.5381C18.494 16.3643 18.6358 16.1103 18.6686 15.8319C18.7013 15.5536 18.6223 15.2736 18.4488 15.0535L18.4381 15.0575Z" fill="white"/>
<path d="M13.0723 20.3488H13.047L8.64373 20.3114C8.55389 20.3109 8.46532 20.2902 8.38455 20.2509C8.30378 20.2115 8.23287 20.1545 8.17707 20.0841L5.32378 16.4761C5.22454 16.35 5.17933 16.1898 5.19808 16.0304C5.21682 15.8711 5.29799 15.7257 5.42378 15.6261L6.89043 14.4734C7.40643 14.0694 8.04238 13.8489 8.69773 13.8468L13.089 13.8428C13.4739 13.8428 13.8431 13.9957 14.1152 14.2679C14.3874 14.54 14.5403 14.9092 14.5403 15.2941C14.5403 15.679 14.3874 16.0482 14.1152 16.3204C13.8431 16.5925 13.4739 16.7454 13.089 16.7454H11.289C11.2537 16.7454 11.2198 16.7595 11.1947 16.7845C11.1697 16.8095 11.1557 16.8434 11.1557 16.8788C11.1557 16.9141 11.1697 16.948 11.1947 16.9731C11.2198 16.9981 11.2537 17.0121 11.289 17.0121H13.433C13.5335 17.0117 13.6311 16.9779 13.7103 16.9161L16.7043 14.5708C16.9891 14.3489 17.3461 14.2405 17.7063 14.2668C18.0664 14.293 18.4039 14.4519 18.6536 14.7128L18.6676 14.7174L18.7443 14.8148C18.9821 15.1172 19.0904 15.5016 19.0454 15.8837C19.0005 16.2658 18.8059 16.6145 18.5043 16.8534L14.8823 19.7201C14.3661 20.1259 13.7289 20.3472 13.0723 20.3488ZM8.73906 19.5241L13.055 19.5601C13.5431 19.5608 14.0174 19.3982 14.4023 19.0981L18.0243 16.2314C18.1553 16.1263 18.2418 15.9757 18.2665 15.8096C18.2912 15.6434 18.2523 15.4741 18.1576 15.3354L18.1283 15.3001C18.0189 15.162 17.8594 15.0728 17.6846 15.052C17.5097 15.0311 17.3337 15.0803 17.1949 15.1888L14.2017 17.5334C13.9841 17.705 13.7154 17.7989 13.4383 17.8001H11.2937C11.1704 17.8034 11.0477 17.782 10.9328 17.7371C10.8179 17.6922 10.7132 17.6248 10.6248 17.5387C10.5365 17.4527 10.4662 17.3498 10.4182 17.2362C10.3703 17.1225 10.3456 17.0004 10.3456 16.8771C10.3456 16.7538 10.3703 16.6317 10.4182 16.518C10.4662 16.4044 10.5365 16.3015 10.6248 16.2155C10.7132 16.1295 10.8179 16.062 10.9328 16.0171C11.0477 15.9722 11.1704 15.9508 11.2937 15.9541H13.0937C13.2695 15.9541 13.4381 15.8843 13.5625 15.7599C13.6868 15.6356 13.7567 15.4669 13.7567 15.2911C13.7567 15.1153 13.6868 14.9466 13.5625 14.8223C13.4381 14.698 13.2695 14.6281 13.0937 14.6281L8.7024 14.6321C8.22333 14.6338 7.75845 14.795 7.38108 15.0901L6.05777 16.1288L8.73906 19.5241Z" fill="#2A2A2A"/>
<path d="M12.1241 4.62085L13.3434 7.09152L16.07 7.48552L14.0987 9.41152L14.5654 12.1269L12.1267 10.8449L9.68944 12.1269L10.1561 9.41152L8.18479 7.48818L10.9114 7.09418L12.1241 4.62085Z" fill="white"/>
<path d="M9.16393 12.8461L9.72992 9.54678L7.33463 7.21011L10.6466 6.73144L12.1246 3.73145L13.6065 6.73144L16.9192 7.21078L14.5245 9.54678L15.0898 12.8454L12.1246 11.2881L9.16393 12.8461ZM9.0306 7.76211L10.5779 9.27144L10.2126 11.4048L12.1266 10.3974L14.0419 11.4048L13.6765 9.27144L15.2238 7.76078L13.0825 7.45144L12.1246 5.51278L11.1706 7.45211L9.0306 7.76211Z" fill="#2A2A2A"/>
</svg>
