<svg width="58" height="61" viewBox="0 0 58 61" fill="none" xmlns="http://www.w3.org/2000/svg">
<path d="M57.3346 42.6712L52.5048 35.896C52.4151 35.7705 52.2967 35.6683 52.1594 35.5978C52.0222 35.5274 51.8702 35.4907 51.7159 35.4908H32.3536V33.5562H35.466C35.5932 33.5555 35.719 33.5298 35.8363 33.4804C35.9535 33.4311 36.0599 33.3592 36.1493 33.2687C36.2388 33.1783 36.3096 33.0711 36.3576 32.9533C36.4056 32.8355 36.43 32.7094 36.4293 32.5822V19.0399C36.4293 18.783 36.3272 18.5366 36.1455 18.3549C35.9639 18.1733 35.7175 18.0712 35.4606 18.0712H32.3536V16.1366H44.9354C45.0896 16.1368 45.2417 16.1001 45.3789 16.0296C45.5161 15.9591 45.6345 15.8569 45.7242 15.7314L50.5541 8.95625C50.671 8.79213 50.7339 8.59563 50.7339 8.39411C50.7339 8.19259 50.671 7.99608 50.5541 7.83197L45.7215 1.05678C45.6321 0.931681 45.5141 0.829683 45.3774 0.759227C45.2407 0.688771 45.0892 0.651882 44.9354 0.651611H13.968C13.7111 0.651611 13.4647 0.753665 13.2831 0.935323C13.1014 1.11698 12.9994 1.36336 12.9994 1.62026V15.168C12.9994 15.4249 13.1014 15.6712 13.2831 15.8529C13.4647 16.0346 13.7111 16.1366 13.968 16.1366H24.6125V18.0712H6.29851C6.14426 18.0711 5.9922 18.1078 5.85499 18.1782C5.71777 18.2487 5.59937 18.3509 5.50964 18.4764L0.679801 25.2516C0.562852 25.4157 0.5 25.6122 0.5 25.8137C0.5 26.0152 0.562852 26.2117 0.679801 26.3759L5.50964 33.1511C5.59937 33.2765 5.71777 33.3787 5.85499 33.4492C5.9922 33.5197 6.14426 33.5564 6.29851 33.5562H24.6125V35.4908H16.8713C16.6144 35.4908 16.368 35.5929 16.1864 35.7745C16.0047 35.9562 15.9026 36.2026 15.9026 36.4595V50.0072C15.9026 50.2641 16.0047 50.5105 16.1864 50.6921C16.368 50.8738 16.6144 50.9758 16.8713 50.9758H24.6125V59.683C24.6125 59.9399 24.7145 60.1862 24.8962 60.3679C25.0778 60.5496 25.3242 60.6516 25.5811 60.6516H31.3903C31.6463 60.6502 31.8913 60.5475 32.0718 60.366C32.2523 60.1845 32.3536 59.9389 32.3536 59.683V50.9758H51.7079C51.8621 50.976 52.0142 50.9393 52.1514 50.8688C52.2886 50.7984 52.407 50.6961 52.4967 50.5707L57.3266 43.7955C57.4447 43.6322 57.509 43.4361 57.5104 43.2346C57.5118 43.0331 57.4504 42.8361 57.3346 42.6712ZM14.934 2.58623H44.4363L48.5846 8.39277L44.4363 14.1993H14.934V2.58623ZM26.5605 16.1366H30.4324V18.0712H26.5605V16.1366ZM2.63857 25.8124L6.7976 20.0058H34.5V31.6189H6.7976L2.63857 25.8124ZM26.5605 33.5562H30.4324V35.4908H26.5605V33.5562ZM30.4324 58.717H26.5605V50.9758H30.4324V58.717ZM51.2249 49.0385H17.8373V37.4255H51.2115L55.3598 43.232L51.2249 49.0385Z" fill="#2A2A2A"/>
<path fill-rule="evenodd" clip-rule="evenodd" d="M35.466 33.5562C35.5932 33.5555 35.719 33.5298 35.8363 33.4804C35.9535 33.4311 36.0599 33.3592 36.1493 33.2687C36.2388 33.1783 36.3096 33.0711 36.3576 32.9533C36.4056 32.8355 36.43 32.7094 36.4293 32.5822V19.0399C36.4293 18.783 36.3272 18.5366 36.1455 18.3549C35.9639 18.1733 35.7175 18.0712 35.4606 18.0712H6.37594C6.22168 18.0711 6.06962 18.1078 5.93241 18.1782C5.7952 18.2487 5.6768 18.3509 5.58707 18.4764L0.757224 25.2516C0.640275 25.4157 0.577423 25.6122 0.577423 25.8137C0.577423 26.0152 0.640275 26.2118 0.757224 26.3759L5.58707 33.1511C5.6768 33.2765 5.7952 33.3787 5.93241 33.4492C6.06962 33.5197 6.22168 33.5564 6.37594 33.5562H35.466ZM2.71599 25.8124L6.87502 20.0059H34.5V31.6189H6.87502L2.71599 25.8124Z" fill="#3ADB85"/>
<path d="M28.6868 28.7183C28.6868 28.4614 28.5847 28.215 28.4031 28.0334C28.2214 27.8517 27.975 27.7497 27.7181 27.7497H17.0737C16.826 27.7627 16.5927 27.8704 16.4219 28.0503C16.2512 28.2303 16.156 28.4689 16.156 28.717C16.156 28.9651 16.2512 29.2037 16.4219 29.3837C16.5927 29.5637 16.826 29.6712 17.0737 29.6843H27.7181C27.9746 29.6843 28.2205 29.5826 28.4021 29.4015C28.5837 29.2205 28.6861 28.9748 28.6868 28.7183Z" fill="#2A2A2A"/>
<path d="M30.6214 29.6843H31.5901C31.7214 29.6912 31.8527 29.6714 31.9761 29.6259C32.0995 29.5804 32.2123 29.5102 32.3077 29.4197C32.4031 29.3292 32.479 29.2202 32.531 29.0994C32.5829 28.9786 32.6097 28.8485 32.6097 28.717C32.6097 28.5855 32.5829 28.4554 32.531 28.3346C32.479 28.2138 32.4031 28.1048 32.3077 28.0143C32.2123 27.9238 32.0995 27.8536 31.9761 27.8082C31.8527 27.7627 31.7214 27.7428 31.5901 27.7497H30.6214C30.4901 27.7428 30.3587 27.7627 30.2354 27.8082C30.112 27.8536 29.9992 27.9238 29.9038 28.0143C29.8084 28.1048 29.7324 28.2138 29.6805 28.3346C29.6286 28.4554 29.6018 28.5855 29.6018 28.717C29.6018 28.8485 29.6286 28.9786 29.6805 29.0994C29.7324 29.2202 29.8084 29.3292 29.9038 29.4197C29.9992 29.5102 30.112 29.5804 30.2354 29.6259C30.3587 29.6714 30.4901 29.6912 30.6214 29.6843Z" fill="#2A2A2A"/>
<path d="M30.6214 45.1694H19.9769C19.8456 45.1625 19.7143 45.1824 19.5909 45.2278C19.4676 45.2733 19.3547 45.3434 19.2593 45.4339C19.1639 45.5244 19.0879 45.6335 19.036 45.7543C18.9841 45.8751 18.9573 46.0052 18.9573 46.1367C18.9573 46.2682 18.9841 46.3983 19.036 46.5191C19.0879 46.6399 19.1639 46.7489 19.2593 46.8394C19.3547 46.9299 19.4676 47.0001 19.5909 47.0455C19.7143 47.091 19.8456 47.1109 19.9769 47.104H30.6214C30.7527 47.1109 30.8841 47.091 31.0074 47.0455C31.1308 47.0001 31.2436 46.9299 31.339 46.8394C31.4344 46.7489 31.5104 46.6399 31.5623 46.5191C31.6142 46.3983 31.641 46.2682 31.641 46.1367C31.641 46.0052 31.6142 45.8751 31.5623 45.7543C31.5104 45.6335 31.4344 45.5244 31.339 45.4339C31.2436 45.3434 31.1308 45.2733 31.0074 45.2278C30.8841 45.1824 30.7527 45.1625 30.6214 45.1694Z" fill="#2A2A2A"/>
<path d="M34.4907 45.1693H33.5219C33.2742 45.1824 33.041 45.2899 32.8702 45.4699C32.6995 45.6499 32.6043 45.8886 32.6043 46.1366C32.6043 46.3847 32.6995 46.6233 32.8702 46.8033C33.041 46.9832 33.2742 47.0909 33.5219 47.104H34.4907C34.7384 47.0909 34.9716 46.9832 35.1424 46.8033C35.3131 46.6233 35.4083 46.3847 35.4083 46.1366C35.4083 45.8886 35.3131 45.6499 35.1424 45.4699C34.9716 45.2899 34.7384 45.1824 34.4907 45.1693Z" fill="#2A2A2A"/>
<path d="M31.59 9.36144H42.2345C42.3658 9.36836 42.4972 9.34847 42.6205 9.30298C42.7439 9.25749 42.8567 9.18736 42.9521 9.09685C43.0475 9.00635 43.1235 8.89737 43.1754 8.77656C43.2273 8.65574 43.2541 8.52562 43.2541 8.39413C43.2541 8.26263 43.2273 8.13251 43.1754 8.0117C43.1235 7.89089 43.0475 7.78191 42.9521 7.6914C42.8567 7.6009 42.7439 7.53076 42.6205 7.48527C42.4972 7.43979 42.3658 7.4199 42.2345 7.42682H31.59C31.4587 7.4199 31.3274 7.43979 31.204 7.48527C31.0806 7.53076 30.9678 7.6009 30.8724 7.6914C30.777 7.78191 30.701 7.89089 30.6491 8.0117C30.5972 8.13251 30.5704 8.26263 30.5704 8.39413C30.5704 8.52562 30.5972 8.65574 30.6491 8.77656C30.701 8.89737 30.777 9.00635 30.8724 9.09685C30.9678 9.18736 31.0806 9.25749 31.204 9.30298C31.3274 9.34847 31.4587 9.36836 31.59 9.36144Z" fill="#2A2A2A"/>
<path d="M45.1377 9.36144H46.1064C46.3541 9.34839 46.5874 9.24078 46.7582 9.0608C46.9289 8.88083 47.0241 8.64221 47.0241 8.39413C47.0241 8.14605 46.9289 7.90743 46.7582 7.72745C46.5874 7.54748 46.3541 7.43987 46.1064 7.42682H45.1377C45.0064 7.4199 44.8751 7.43979 44.7517 7.48527C44.6283 7.53076 44.5155 7.6009 44.4201 7.6914C44.3247 7.78191 44.2488 7.89089 44.1969 8.0117C44.1449 8.13251 44.1182 8.26263 44.1182 8.39413C44.1182 8.52562 44.1449 8.65574 44.1969 8.77656C44.2488 8.89737 44.3247 9.00635 44.4201 9.09685C44.5155 9.18736 44.6283 9.25749 44.7517 9.30298C44.8751 9.34847 45.0064 9.36836 45.1377 9.36144Z" fill="#2A2A2A"/>
</svg>
