<svg width="24" height="24" viewBox="0 0 24 24" fill="none" xmlns="http://www.w3.org/2000/svg">
<path d="M11.8113 23.9997C9.44625 23.9625 7.14492 23.2272 5.19647 21.886C3.24802 20.5449 1.73935 18.6578 0.860023 16.4619C-0.0193063 14.2659 -0.230077 11.8591 0.254191 9.54368C0.73846 7.22831 1.89617 5.1077 3.58186 3.44829C5.26755 1.78888 7.40603 0.664679 9.72864 0.21694C12.0512 -0.230799 14.4544 0.0178913 16.6361 0.931766C18.8178 1.84564 20.6807 3.38394 21.9909 5.35338C23.3011 7.32283 24.0001 9.63557 24 12.0011C23.9713 15.2075 22.6718 18.2716 20.3867 20.521C18.1017 22.7704 15.0176 24.0215 11.8113 23.9997ZM11.8113 0.763613C9.59695 0.800799 7.44293 1.49146 5.61977 2.74886C3.79661 4.00626 2.3856 5.77434 1.56393 7.83106C0.742254 9.88777 0.546559 12.1414 1.00142 14.309C1.45627 16.4766 2.54141 18.4614 4.12054 20.0143C5.69967 21.5672 7.70239 22.6188 9.8772 23.0372C12.052 23.4555 14.3019 23.2219 16.3444 22.3657C18.3869 21.5095 20.131 20.0689 21.3574 18.2248C22.5839 16.3806 23.2382 14.2152 23.2382 12.0004C23.2093 8.9961 21.99 6.1259 19.8479 4.01937C17.7057 1.91285 14.8155 0.741987 11.8113 0.763613Z" fill="#3ADB85"/>
<path d="M17.6431 6.33911H15.5541V5.3335H8.4473V6.33911H6.35769C6.31075 6.33903 6.26427 6.34808 6.22089 6.36577C6.1775 6.38345 6.13808 6.40941 6.10486 6.44216C6.07165 6.47491 6.0453 6.5138 6.02732 6.55662C6.00934 6.59944 6.00008 6.64534 6.00008 6.6917V8.58414C6 8.84176 6.05131 9.09687 6.15108 9.33489C6.25085 9.57292 6.39713 9.7892 6.58155 9.97136C6.76598 10.1535 6.98493 10.298 7.22591 10.3966C7.46689 10.4951 7.72516 10.5458 7.98598 10.5457H8.70373C8.99787 11.1806 9.43773 11.739 9.98842 12.1767L10.1449 12.3024C10.3784 12.489 10.5666 12.7248 10.696 12.9925C10.8253 13.2603 10.8925 13.5531 10.8926 13.8498V14.6668H13.1082V13.7373C13.1082 13.4766 13.1671 13.2191 13.2807 12.9838C13.3943 12.7485 13.5597 12.5412 13.7649 12.3772L14.0117 12.1792C14.5622 11.7412 15.002 11.1829 15.2964 10.5482H16.0142C16.275 10.5482 16.5332 10.4975 16.7742 10.3989C17.0151 10.3003 17.234 10.1558 17.4184 9.97369C17.6028 9.79154 17.7491 9.5753 17.8489 9.33731C17.9487 9.09932 18.0001 8.84425 18.0001 8.58665V6.69421C18.0003 6.64786 17.9913 6.60191 17.9736 6.55899C17.9558 6.51608 17.9297 6.47704 17.8967 6.44412C17.8636 6.41119 17.8243 6.38503 17.781 6.36712C17.7378 6.34921 17.6913 6.3399 17.6444 6.33974L17.6431 6.33911ZM7.98598 9.63374C7.84638 9.63391 7.70812 9.6069 7.57909 9.55427C7.45006 9.50163 7.33279 9.4244 7.23399 9.32699C7.13519 9.22957 7.05679 9.11388 7.00328 8.98653C6.94976 8.85918 6.92217 8.72265 6.92208 8.58476V7.24919H8.44602V9.42508C8.44602 9.49359 8.45684 9.56272 8.4632 9.63186L7.98598 9.63374ZM17.0774 8.58414C17.0774 8.72197 17.05 8.85846 16.9966 8.9858C16.9432 9.11315 16.8649 9.22886 16.7662 9.32632C16.6675 9.42379 16.5504 9.5011 16.4215 9.55385C16.2925 9.60659 16.1544 9.63374 16.0148 9.63374H15.5363C15.5427 9.56524 15.5535 9.4961 15.5535 9.42696V7.25107H17.0774V8.58414Z" fill="white"/>
<path d="M13.5506 15.3334H10.4463V14.0763C10.4465 13.821 10.3896 13.569 10.2797 13.3386C10.1697 13.1083 10.0095 12.9055 9.81091 12.7453L9.64724 12.6122C9.09228 12.1638 8.63569 11.6058 8.30599 10.973H7.80302C7.14831 10.9722 6.52067 10.7116 6.05772 10.2485C5.59477 9.78544 5.3343 9.15761 5.33342 8.5027V6.49888C5.33342 6.29537 5.41424 6.1002 5.5581 5.9563C5.70195 5.81239 5.89707 5.73155 6.10051 5.73155H7.89217V4.66675H16.1093V5.73155H17.9017C18.1052 5.73243 18.3001 5.81408 18.4436 5.95856C18.587 6.10305 18.6673 6.29857 18.6667 6.5022V8.50403C18.6657 9.15888 18.4052 9.78661 17.9423 10.2497C17.4793 10.7127 16.8518 10.9733 16.1971 10.9744H15.6922C15.3625 11.6077 14.9054 12.166 14.3496 12.6142L14.0935 12.8225C13.9244 12.9585 13.7879 13.1308 13.6942 13.3266C13.6005 13.5224 13.5518 13.7367 13.5519 13.9538L13.5506 15.3334ZM11.2333 14.5461H12.7635V13.9558C12.7629 13.6211 12.8374 13.2904 12.9816 12.9883C13.1258 12.6862 13.3359 12.4203 13.5965 12.2102L13.854 12.0012C14.3819 11.5751 14.804 11.0325 15.0874 10.416L15.1932 10.1864H16.1965C16.6426 10.1855 17.0701 10.0078 17.3855 9.69226C17.7009 9.37667 17.8783 8.94892 17.879 8.5027V6.51817H15.3209V5.45337H8.6779V6.51817H6.09985L6.11981 8.50204C6.12051 8.94819 6.29801 9.37588 6.61339 9.69136C6.92878 10.0068 7.35633 10.1844 7.80236 10.1851H8.80098L8.90609 10.4147C9.18921 11.031 9.61117 11.5734 10.1389 11.9992L10.3032 12.1324C10.5935 12.3664 10.8275 12.6626 10.988 12.9992C11.1485 13.3357 11.2314 13.704 11.2307 14.0769L11.2333 14.5461ZM7.80302 10.0041C7.4044 10.0035 7.02223 9.84505 6.74017 9.56329C6.45812 9.28152 6.29916 8.89944 6.29811 8.50071V6.69254H8.6779V9.39048C8.67887 9.42812 8.68198 9.46567 8.68721 9.50295L8.73578 10.0014H7.80435L7.80302 10.0041ZM7.08516 7.47916V8.49738C7.08516 8.68795 7.16075 8.87073 7.29534 9.00561C7.42992 9.14048 7.61251 9.21643 7.80302 9.21679H7.89151V7.48182L7.08516 7.47916ZM16.1998 10.0041H15.2684L15.3143 9.50162C15.3176 9.46502 15.3229 9.42841 15.3229 9.39181V6.69387H17.7034V8.49871C17.7032 8.69657 17.6641 8.89246 17.5882 9.0752C17.5124 9.25793 17.4013 9.42393 17.2613 9.56371C17.1213 9.7035 16.9551 9.81434 16.7723 9.88989C16.5895 9.96545 16.3936 10.0042 16.1958 10.0041H16.1998ZM16.1107 9.21679H16.1991C16.3895 9.21661 16.572 9.1409 16.7066 9.00627C16.8411 8.87164 16.9168 8.6891 16.917 8.49871V7.48049H16.1107V9.21679Z" fill="#2A2A2A"/>
<path d="M15.1998 18.222V17.0303C15.1996 16.7571 15.0824 16.4951 14.8738 16.3019C14.6652 16.1088 14.3823 16.0002 14.0873 16H9.91289C9.61783 16 9.33485 16.1085 9.12621 16.3018C8.91757 16.495 8.80036 16.757 8.80036 17.0303V18.222H8.00008V19.3333H16.0001V18.222H15.1998Z" fill="white"/>
<path d="M16.0001 19.3335H8.00008V17.5077H8.72633V16.711C8.72666 16.3457 8.87216 15.9956 9.13087 15.7373C9.38959 15.4791 9.74039 15.3338 10.1063 15.3335H13.8945C14.2604 15.334 14.6111 15.4793 14.8697 15.7375C15.1284 15.9957 15.274 16.3458 15.2745 16.711V17.5077H16.0001V19.3335ZM8.74009 18.5948H15.2601V18.2483H14.5344V16.7128C14.5341 16.5435 14.4666 16.3812 14.3467 16.2615C14.2267 16.1418 14.0641 16.0744 13.8945 16.0741H10.1063C9.93655 16.0741 9.77378 16.1414 9.65377 16.2611C9.53376 16.3809 9.46634 16.5434 9.46634 16.7128V18.2483H8.74009V18.5948Z" fill="#2A2A2A"/>
</svg>
