<svg width="24" height="24" viewBox="0 0 24 24" fill="none" xmlns="http://www.w3.org/2000/svg">
<path d="M11.8083 23.9997C9.44337 23.9619 7.14237 23.2261 5.19434 21.8846C3.24631 20.5431 1.73812 18.6559 0.859236 16.4599C-0.0196469 14.264 -0.230025 11.8572 0.25453 9.54208C0.739084 7.22693 1.89696 5.1066 3.5827 3.44746C5.26845 1.78833 7.40687 0.664374 9.72935 0.216804C12.0518 -0.230766 14.4548 0.0180053 16.6363 0.931867C18.8178 1.84573 20.6807 3.38392 21.9908 5.35322C23.301 7.32251 24 9.63508 24 12.0004C23.9706 15.2072 22.6706 18.2715 20.385 20.521C18.0994 22.7705 15.015 24.0215 11.8083 23.9997ZM11.8083 0.775916C9.59653 0.813828 7.44529 1.50437 5.62466 2.76082C3.80404 4.01728 2.39517 5.78365 1.57498 7.83814C0.754781 9.89262 0.559814 12.1437 1.01455 14.3086C1.4693 16.4735 2.55348 18.4558 4.13096 20.0066C5.70845 21.5574 7.70892 22.6076 9.8812 23.0253C12.0535 23.4429 14.3007 23.2095 16.3408 22.3542C18.3808 21.4989 20.1227 20.06 21.3478 18.218C22.5729 16.3761 23.2265 14.2132 23.2265 12.0011C23.1973 8.99939 21.9788 6.13186 19.8382 4.0275C17.6976 1.92313 14.8098 0.753766 11.8083 0.775916Z" fill="#3ADB85"/>
<path fill-rule="evenodd" clip-rule="evenodd" d="M7.98197 18.3125C7.97527 18.4078 7.99416 18.5031 8.03666 18.5885C8.07916 18.6738 8.1437 18.7461 8.2235 18.7977C8.30642 18.8463 8.40065 18.8719 8.49658 18.8719C8.59252 18.8719 8.68675 18.8463 8.76967 18.7977L12.4686 16.3731L8.39804 13.9043L7.98197 18.3125Z" fill="white"/>
<path d="M8.49014 19.2573C8.36639 19.2585 8.24378 19.2335 8.13022 19.184C8.01666 19.1344 7.91467 19.0615 7.83085 18.9698C7.74703 18.8781 7.68324 18.7697 7.64359 18.6517C7.60394 18.5336 7.58933 18.4085 7.60068 18.2844V18.2746L8.07407 13.2593L13.1848 16.3592L8.97577 19.1179C8.82903 19.2069 8.66143 19.255 8.49014 19.2573ZM8.36133 18.3453C8.36006 18.3715 8.36564 18.3976 8.37751 18.4209C8.38938 18.4442 8.40712 18.464 8.42895 18.4783C8.45264 18.489 8.47855 18.4937 8.50445 18.4921C8.53036 18.4906 8.5555 18.4827 8.57773 18.4692L11.7504 16.3884L8.71943 14.5501L8.36133 18.3453Z" fill="#2A2A2A"/>
<path fill-rule="evenodd" clip-rule="evenodd" d="M13.5841 5.33057L17.4144 7.62224L12.7526 15.4488L8.92231 13.1565L13.5841 5.33057Z" fill="white"/>
<path d="M12.8833 15.9734L8.39868 13.2893L13.4521 4.80566L17.938 7.48912L12.8833 15.9734ZM9.4453 13.0234L12.6206 14.9239L16.8908 7.75507L13.7148 5.85518L9.4453 13.0234Z" fill="#2A2A2A"/>
</svg>
