<svg width="55" height="37" viewBox="0 0 55 37" fill="none" xmlns="http://www.w3.org/2000/svg">
<path d="M9.01873 19.5271C7.2348 19.5271 5.49094 20.0394 4.00765 20.9994C2.52437 21.9594 1.36829 23.3238 0.685613 24.9202C0.00293251 26.5166 -0.175689 28.2732 0.172338 29.9679C0.520365 31.6626 1.3794 33.2193 2.64083 34.4411C3.90226 35.663 5.50942 36.495 7.25907 36.8321C9.00872 37.1692 10.8223 36.9962 12.4704 36.335C14.1186 35.6737 15.5272 34.554 16.5183 33.1172C17.5094 31.6805 18.0384 29.9914 18.0384 28.2635C18.0386 27.1162 17.8054 25.9801 17.3521 24.9201C16.8989 23.8601 16.2345 22.8969 15.3969 22.0856C14.5593 21.2743 13.565 20.6308 12.4706 20.1918C11.3762 19.7528 10.2033 19.5269 9.01873 19.5271ZM9.01873 32.3905C8.25471 32.3905 7.50784 32.171 6.87257 31.7599C6.23731 31.3487 5.74218 30.7644 5.4498 30.0807C5.15742 29.397 5.08093 28.6447 5.22998 27.9188C5.37903 27.193 5.74695 26.5263 6.28719 26.003C6.82744 25.4798 7.51575 25.1234 8.2651 24.979C9.01444 24.8347 9.79116 24.9087 10.497 25.1919C11.2029 25.4751 11.8062 25.9547 12.2307 26.57C12.6551 27.1854 12.8817 27.9088 12.8817 28.6488C12.8814 29.6411 12.4744 30.5926 11.75 31.2943C11.0256 31.9959 10.0432 32.3902 9.01873 32.3905Z" fill="#3ADB85"/>
<path d="M42.708 16.1874C40.5831 16.1874 38.506 16.7977 36.7392 17.9412C34.9724 19.0846 33.5953 20.7099 32.7822 22.6114C31.969 24.5129 31.7563 26.6052 32.1708 28.6239C32.5853 30.6425 33.6086 32.4967 35.1111 33.9521C36.6136 35.4074 38.528 36.3985 40.6121 36.8001C42.6961 37.2016 44.8563 36.9955 46.8195 36.2079C48.7826 35.4202 50.4606 34.0864 51.6411 32.3751C52.8216 30.6638 53.4517 28.6519 53.4517 26.5937C53.4517 23.8338 52.3198 21.1869 50.305 19.2353C48.2901 17.2838 45.5574 16.1874 42.708 16.1874ZM42.708 31.2101C41.7648 31.2101 40.8427 30.9392 40.0585 30.4316C39.2742 29.924 38.6629 29.2026 38.302 28.3585C37.941 27.5144 37.8466 26.5856 38.0306 25.6896C38.2146 24.7935 38.6688 23.9704 39.3358 23.3244C40.0027 22.6783 40.8525 22.2384 41.7776 22.0602C42.7028 21.8819 43.6617 21.9734 44.5331 22.323C45.4045 22.6726 46.1494 23.2647 46.6734 24.0244C47.1975 24.784 47.4771 25.6771 47.4771 26.5907C47.4771 27.8159 46.9747 28.9908 46.0803 29.8571C45.1859 30.7234 43.9729 31.2101 42.708 31.2101Z" fill="#3ADB85"/>
<path d="M48.6772 15.0827V0H28.1183L26.2614 14.3888H15.0753V8.73548H14.5446V6.35898H13.3351V6.74425H14.1468V8.73548H13.6161V14.3888H6.23314L6.01904 18.674C7.73783 18.1691 9.5627 18.1065 11.3141 18.4922C13.0654 18.8779 14.6829 19.6987 16.0073 20.8738C17.3318 22.0488 18.3175 23.5376 18.8676 25.1937C19.4176 26.8498 19.5129 28.616 19.1442 30.3187H31.275C30.4922 28.0745 30.4325 25.6528 31.1038 23.3749C31.7751 21.0971 33.1457 19.0709 35.0336 17.5652C36.9216 16.0594 39.2377 15.1455 41.6745 14.9445C44.1113 14.7435 46.5536 15.2651 48.6772 16.44C51.1482 17.9362 53.0189 20.2034 53.9811 22.8677H54.9958C54.9958 22.8677 54.1221 18.5885 48.6772 15.0827ZM36.6185 12.8467H28.0645L29.5236 1.54404H37.2354L36.6185 12.8467ZM47.0861 12.8467H38.8447L38.862 1.54404H47.0872L47.0861 12.8467Z" fill="#3ADB85"/>
</svg>
