<svg width="8" height="14" viewBox="0 0 8 14" fill="none" xmlns="http://www.w3.org/2000/svg">
<path d="M2.00452 2.7017C2.00452 2.61443 2.01664 2.42596 2.04088 2.13748C2.06694 1.8484 2.17603 1.54599 2.37178 1.22843C2.56571 0.912082 2.88024 0.627852 3.3178 0.376347C3.75353 0.126055 4.3832 0 5.20499 0H7.52004V2.52292H5.82496C5.65709 2.52292 5.50073 2.58595 5.35953 2.71019C5.21953 2.83442 5.14741 2.9526 5.14741 3.06229V4.63192H7.51943C7.49458 4.93918 7.46731 5.23796 7.4358 5.52643L7.34186 6.28882C7.30429 6.54638 7.26611 6.78516 7.22854 7.00515H5.13045V14H2.00452V7.00455H0.479736V4.63192H2.00452V2.7017Z" fill="white"/>
</svg>
