<svg width="14" height="14" viewBox="0 0 14 14" fill="none" xmlns="http://www.w3.org/2000/svg">
<g clip-path="url(#clip0_341_3617)">
<path d="M13.8751 10.1307C13.8375 10.0677 13.6047 9.56192 12.4846 8.52235C11.312 7.43376 11.4695 7.61053 12.8819 5.72826C13.7421 4.58193 14.086 3.88187 13.9784 3.5826C13.876 3.29733 13.2433 3.37259 13.2433 3.37259L11.1396 3.38484C11.1396 3.38484 10.9839 3.36384 10.8675 3.43297C10.7546 3.50122 10.682 3.65873 10.682 3.65873C10.682 3.65873 10.3486 4.54605 9.90406 5.30036C8.96686 6.8921 8.59146 6.97611 8.43832 6.87722C8.08217 6.64708 8.17143 5.9514 8.17143 5.45787C8.17143 3.91513 8.40507 3.27195 7.71552 3.10569C7.48625 3.05056 7.31824 3.01381 6.73282 3.00768C5.98202 2.99981 5.34584 3.01031 4.98619 3.1862C4.74642 3.30346 4.56179 3.5651 4.67467 3.57998C4.8138 3.59835 5.12883 3.66486 5.29597 3.89237C5.51211 4.18552 5.50423 4.84532 5.50423 4.84532C5.50423 4.84532 5.62849 6.66108 5.21458 6.88685C4.93019 7.04174 4.54078 6.72584 3.7051 5.2811C3.27719 4.54167 2.95342 3.72349 2.95342 3.72349C2.95342 3.72349 2.89129 3.57123 2.78015 3.48984C2.64539 3.39096 2.45638 3.35946 2.45638 3.35946L0.455982 3.37171C0.455982 3.37171 0.155835 3.38046 0.0455767 3.51085C-0.0524306 3.62723 0.0377011 3.867 0.0377011 3.867C0.0377011 3.867 1.60407 7.5309 3.37695 9.37816C5.00369 11.0714 6.85008 10.9603 6.85008 10.9603H7.68664C7.68664 10.9603 7.93954 10.9323 8.06817 10.7931C8.18718 10.6654 8.18281 10.4256 8.18281 10.4256C8.18281 10.4256 8.16618 9.30291 8.68772 9.13752C9.20138 8.97476 9.86118 10.2226 10.5604 10.703C11.0889 11.0662 11.4905 10.9865 11.4905 10.9865L13.3606 10.9603C13.3606 10.9603 14.3389 10.8999 13.8751 10.1307Z" fill="white"/>
</g>
<defs>
<clipPath id="clip0_341_3617">
<rect width="14" height="14" fill="white"/>
</clipPath>
</defs>
</svg>
