<svg width="24" height="24" viewBox="0 0 24 24" fill="none" xmlns="http://www.w3.org/2000/svg">
<g clip-path="url(#clip0_454_8373)">
<path d="M23.7859 17.3675C23.7213 17.2595 23.3223 16.3924 21.4022 14.6103C19.392 12.7441 19.662 13.0472 22.0832 9.82042C23.5578 7.85527 24.1474 6.65518 23.9629 6.14214C23.7874 5.65311 22.7028 5.78212 22.7028 5.78212L19.0965 5.80312C19.0965 5.80312 18.8295 5.76712 18.63 5.88562C18.4365 6.00263 18.3119 6.27265 18.3119 6.27265C18.3119 6.27265 17.7404 7.79377 16.9783 9.08686C15.3717 11.8156 14.7282 11.9596 14.4657 11.7901C13.8551 11.3955 14.0081 10.2029 14.0081 9.35688C14.0081 6.71219 14.4087 5.6096 13.2266 5.32458C12.8335 5.23008 12.5455 5.16707 11.5419 5.15657C10.2548 5.14307 9.16427 5.16107 8.54772 5.46259C8.13669 5.66361 7.82017 6.11214 8.01368 6.13764C8.2522 6.16915 8.79224 6.28315 9.07876 6.67318C9.44929 7.17572 9.43579 8.30681 9.43579 8.30681C9.43579 8.30681 9.64881 11.4195 8.93925 11.8066C8.45172 12.0721 7.78417 11.5305 6.35156 9.05386C5.61801 7.78627 5.06297 6.38366 5.06297 6.38366C5.06297 6.38366 4.95646 6.12264 4.76594 5.98313C4.53493 5.81362 4.2109 5.75962 4.2109 5.75962L0.781649 5.78062C0.781649 5.78062 0.267111 5.79562 0.0780965 6.01913C-0.0899159 6.21865 0.0645955 6.62968 0.0645955 6.62968C0.0645955 6.62968 2.74979 12.9106 5.78902 16.0774C8.57773 18.9801 11.743 18.7896 11.743 18.7896H13.1771C13.1771 18.7896 13.6106 18.7416 13.8311 18.5031C14.0351 18.2841 14.0276 17.873 14.0276 17.873C14.0276 17.873 13.9991 15.9484 14.8932 15.6649C15.7738 15.3858 16.9048 17.525 18.1034 18.3486C19.0095 18.9711 19.698 18.8346 19.698 18.8346L22.9038 18.7896C22.9038 18.7896 24.5809 18.6861 23.7859 17.3675Z" fill="#073044"/>
</g>
<defs>
<clipPath id="clip0_454_8373">
<rect width="24" height="24" fill="white"/>
</clipPath>
</defs>
</svg>
