<svg width="24" height="24" viewBox="0 0 24 24" fill="none" xmlns="http://www.w3.org/2000/svg">
<g clip-path="url(#clip0_277_2074)">
<path d="M11.8083 23.9998C9.44337 23.962 7.14237 23.2261 5.19434 21.8845C3.24631 20.5429 1.73812 18.6555 0.859236 16.4594C-0.0196469 14.2632 -0.230025 11.8563 0.25453 9.54093C0.739084 7.22558 1.89696 5.10508 3.5827 3.4458C5.26845 1.78652 7.40687 0.662477 9.72935 0.214869C12.0518 -0.232739 14.4548 0.0160537 16.6363 0.929993C18.8178 1.84393 20.6807 3.38226 21.9908 5.35172C23.301 7.32118 24 9.63394 24 11.9995C23.9706 15.2066 22.6706 18.2711 20.385 20.5207C18.0994 22.7704 15.015 24.0216 11.8083 23.9998V23.9998ZM11.8083 0.774029C9.59669 0.812586 7.44578 1.50372 5.62559 2.76067C3.80539 4.01761 2.39704 5.78434 1.57734 7.83905C0.757648 9.89376 0.563141 12.1449 1.01824 14.3098C1.47335 16.4747 2.55777 18.4568 4.13538 20.0074C5.71299 21.5581 7.71346 22.608 9.88564 23.0254C12.0578 23.4429 14.3049 23.2092 16.3448 22.3538C18.3846 21.4984 20.1263 20.0593 21.3513 18.2173C22.5762 16.3752 23.2297 14.2123 23.2298 12.0001C23.2006 8.99763 21.9816 6.12936 19.8403 4.02472C17.6991 1.92008 14.8104 0.751005 11.8083 0.774029V0.774029Z" fill="#3ADB85"/>
<path d="M10.6349 5.70123C9.67677 5.8908 8.77522 6.30438 8.0016 6.90924C7.22798 7.5141 6.60354 8.29363 6.17768 9.18614C5.75183 10.0786 5.53626 11.0596 5.54804 12.0514C5.55982 13.0432 5.79863 14.0186 6.24555 14.9004C6.27897 14.9647 6.29932 15.0351 6.30541 15.1075C6.31149 15.1799 6.30318 15.2528 6.28098 15.3219L5.47718 17.7735C5.44534 17.8706 5.44074 17.9748 5.46388 18.0744C5.48702 18.174 5.53699 18.2651 5.6082 18.3374C5.67941 18.4098 5.76904 18.4606 5.86705 18.4841C5.96506 18.5076 6.06757 18.5029 6.16311 18.4706L8.58546 17.6505C8.65298 17.6281 8.72422 17.6196 8.79501 17.6256C8.86579 17.6315 8.93469 17.6518 8.99767 17.6852C9.89193 18.1462 10.8816 18.3835 11.8844 18.3773C12.8871 18.371 13.8739 18.1216 14.7625 17.6495C15.6512 17.1775 16.4161 16.4966 16.9934 15.6635C17.5708 14.8304 17.944 13.8693 18.082 12.86C18.2199 11.8508 18.1186 10.8226 17.7865 9.86118C17.4544 8.89974 16.9011 8.03282 16.1726 7.33257C15.4442 6.63233 14.5617 6.11902 13.5986 5.83538C12.6354 5.55174 11.6196 5.50597 10.6355 5.70188L10.6349 5.70123ZM12.2348 13.9717H9.1078C9.03283 13.9743 8.95812 13.9616 8.8881 13.9342C8.81809 13.9068 8.75422 13.8654 8.70028 13.8124C8.64635 13.7595 8.60346 13.696 8.57416 13.6258C8.54487 13.5557 8.52978 13.4802 8.52978 13.404C8.52978 13.3278 8.54487 13.2523 8.57416 13.1821C8.60346 13.112 8.64635 13.0485 8.70028 12.9955C8.75422 12.9426 8.81809 12.9012 8.8881 12.8738C8.95812 12.8464 9.03283 12.8337 9.1078 12.8362H12.2361C12.381 12.8412 12.5183 12.9032 12.619 13.0092C12.7198 13.1151 12.7761 13.2567 12.7761 13.404C12.7761 13.5513 12.7198 13.6929 12.619 13.7988C12.5183 13.9047 12.381 13.9667 12.2361 13.9717H12.2348ZM14.4697 11.7007H9.1078C9.03283 11.7033 8.95812 11.6906 8.8881 11.6632C8.81809 11.6358 8.75422 11.5944 8.70028 11.5414C8.64635 11.4885 8.60346 11.425 8.57416 11.3548C8.54487 11.2847 8.52978 11.2092 8.52978 11.133C8.52978 11.0568 8.54487 10.9813 8.57416 10.9111C8.60346 10.841 8.64635 10.7775 8.70028 10.7245C8.75422 10.6716 8.81809 10.6302 8.8881 10.6028C8.95812 10.5754 9.03283 10.5626 9.1078 10.5652H14.4703C14.6152 10.5702 14.7526 10.6322 14.8533 10.7382C14.9541 10.8441 15.0104 10.9857 15.0104 11.133C15.0104 11.2803 14.9541 11.4219 14.8533 11.5278C14.7526 11.6337 14.6152 11.6957 14.4703 11.7007H14.4697Z" fill="white"/>
<path d="M5.99179 18.8874C5.84553 18.8875 5.70135 18.8522 5.57115 18.7845C5.44094 18.7168 5.32845 18.6187 5.24294 18.4981C5.15744 18.3775 5.10138 18.238 5.0794 18.0911C5.05741 17.9441 5.07013 17.794 5.1165 17.6531L5.91965 15.2014C5.92593 15.1821 5.92825 15.1617 5.92648 15.1414C5.9247 15.1212 5.91887 15.1015 5.90935 15.0836C5.18154 13.6469 4.98234 11.9934 5.34759 10.4208C5.71284 8.8481 6.61856 7.45958 7.90171 6.50514C9.18485 5.5507 10.7611 5.09303 12.3468 5.21452C13.9325 5.33602 15.4235 6.02869 16.5512 7.16786C17.679 8.30702 18.3696 9.81785 18.4987 11.4284C18.6277 13.0389 18.1868 14.6434 17.2552 15.9529C16.3236 17.2625 14.9626 18.1911 13.4171 18.5716C11.8716 18.9522 10.2432 18.7597 8.82505 18.0287C8.80648 18.0185 8.78607 18.0122 8.76505 18.0102C8.74402 18.0081 8.72281 18.0104 8.70268 18.0169L6.28355 18.8363C6.18967 18.8693 6.09112 18.8866 5.99179 18.8874V18.8874ZM11.8399 5.9721C11.4603 5.97204 11.0815 6.0093 10.709 6.08336C9.80951 6.26197 8.96327 6.6507 8.23712 7.21885C7.51097 7.78699 6.92481 8.51897 6.52499 9.35693C6.12516 10.1949 5.92261 11.1159 5.93336 12.0471C5.94411 12.9782 6.16785 13.8941 6.58691 14.7223C6.64344 14.8323 6.67775 14.9526 6.68781 15.0763C6.69788 15.1999 6.6835 15.3244 6.64552 15.4423L5.84108 17.8959C5.8276 17.9373 5.83084 17.9825 5.85009 18.0215C5.85945 18.0407 5.87246 18.0578 5.88838 18.0719C5.90431 18.0859 5.92282 18.0966 5.94284 18.1033C5.97607 18.1146 6.01201 18.1146 6.04525 18.1033L8.4676 17.2826C8.58362 17.2441 8.70602 17.2295 8.82766 17.2397C8.9493 17.2498 9.06774 17.2844 9.17607 17.3415C9.97352 17.7522 10.8522 17.9739 11.7461 17.9898C12.64 18.0058 13.5258 17.8157 14.3369 17.4337C15.1481 17.0518 15.8635 16.488 16.4294 15.7847C16.9953 15.0814 17.3969 14.2569 17.6042 13.3732C17.8114 12.4895 17.8187 11.5696 17.6257 10.6825C17.4327 9.79551 17.0444 8.96447 16.4898 8.2519C15.9353 7.53932 15.229 6.96374 14.4241 6.56842C13.6192 6.1731 12.7365 5.96833 11.8425 5.96949L11.8399 5.9721ZM12.2348 14.3611H9.10651C8.85729 14.3611 8.61827 14.2605 8.44205 14.0814C8.26582 13.9023 8.16681 13.6595 8.16681 13.4062C8.16681 13.153 8.26582 12.9101 8.44205 12.731C8.61827 12.5519 8.85729 12.4513 9.10651 12.4513H12.2348C12.484 12.4513 12.723 12.5519 12.8992 12.731C13.0755 12.9101 13.1745 13.153 13.1745 13.4062C13.1745 13.6595 13.0755 13.9023 12.8992 14.0814C12.723 14.2605 12.484 14.3611 12.2348 14.3611V14.3611ZM9.10651 13.2256C9.05937 13.2256 9.01415 13.2446 8.98082 13.2785C8.94748 13.3124 8.92875 13.3583 8.92875 13.4062C8.92875 13.4541 8.94748 13.5001 8.98082 13.5339C9.01415 13.5678 9.05937 13.5868 9.10651 13.5868H12.2348C12.2819 13.5868 12.3271 13.5678 12.3605 13.5339C12.3938 13.5001 12.4125 13.4541 12.4125 13.4062C12.4125 13.3583 12.3938 13.3124 12.3605 13.2785C12.3271 13.2446 12.2819 13.2256 12.2348 13.2256H9.10651ZM14.471 12.0901H9.1078C8.85858 12.0901 8.61956 11.9895 8.44333 11.8104C8.26711 11.6313 8.1681 11.3885 8.1681 11.1352C8.1681 10.882 8.26711 10.6391 8.44333 10.46C8.61956 10.2809 8.85858 10.1803 9.1078 10.1803H14.471C14.7202 10.1803 14.9592 10.2809 15.1354 10.46C15.3117 10.6391 15.4107 10.882 15.4107 11.1352C15.4107 11.3885 15.3117 11.6313 15.1354 11.8104C14.9592 11.9895 14.7202 12.0901 14.471 12.0901V12.0901ZM9.1078 10.9546C9.06066 10.9546 9.01544 10.9736 8.9821 11.0075C8.94877 11.0414 8.93004 11.0873 8.93004 11.1352C8.93004 11.1831 8.94877 11.2291 8.9821 11.2629C9.01544 11.2968 9.06066 11.3158 9.1078 11.3158H14.471C14.5181 11.3158 14.5633 11.2968 14.5967 11.2629C14.63 11.2291 14.6487 11.1831 14.6487 11.1352C14.6487 11.0873 14.63 11.0414 14.5967 11.0075C14.5633 10.9736 14.5181 10.9546 14.471 10.9546H9.1078Z" fill="#2A2A2A"/>
</g>
<defs>
<clipPath id="clip0_277_2074">
<rect width="24" height="24" fill="white"/>
</clipPath>
</defs>
</svg>
