<svg width="14" height="14" viewBox="0 0 14 14" fill="none" xmlns="http://www.w3.org/2000/svg">
<path d="M13.2852 3.7192C13.134 3.15692 12.6906 2.71368 12.1284 2.56227C11.1014 2.28125 6.993 2.28125 6.993 2.28125C6.993 2.28125 2.88479 2.28125 1.85772 2.55162C1.30633 2.70286 0.852196 3.157 0.700951 3.7192C0.430664 4.74619 0.430664 6.87604 0.430664 6.87604C0.430664 6.87604 0.430664 9.01662 0.700951 10.0329C0.852356 10.5951 1.29552 11.0383 1.8578 11.1897C2.89561 11.4708 6.99316 11.4708 6.99316 11.4708C6.99316 11.4708 11.1014 11.4708 12.1284 11.2005C12.6907 11.0491 13.134 10.6059 13.2854 10.0437C13.5556 9.01662 13.5556 6.88686 13.5556 6.88686C13.5556 6.88686 13.5664 4.74619 13.2852 3.7192ZM5.68499 8.84367V4.90841L9.1013 6.87604L5.68499 8.84367Z" fill="white"/>
</svg>
